<mxfile host="app.diagrams.net" modified="2020-09-21T09:45:52.195Z" agent="5.0 (Macintosh; Intel Mac OS X 10_15_4) AppleWebKit/537.36 (KHTML, like Gecko) Chrome/85.0.4183.102 Safari/537.36" etag="PiB4ytqvi8IzzV1EXf2K" compressed="false" version="13.7.3" type="device">
  <diagram name="Page-1" id="64c3da0e-402f-94eb-ee01-a36477274f13">
    <mxGraphModel dx="5899" dy="4057" grid="1" gridSize="10" guides="1" tooltips="1" connect="1" arrows="1" fold="1" page="1" pageScale="1" pageWidth="1169" pageHeight="827" background="#ffffff" math="0" shadow="0">
      <root>
        <mxCell id="0" />
        <mxCell id="1" parent="0" />
        <mxCell id="dWubEJJqkw_rELNpz6dQ-236" style="edgeStyle=orthogonalEdgeStyle;rounded=0;orthogonalLoop=1;jettySize=auto;html=1;exitX=0.5;exitY=0;exitDx=0;exitDy=0;entryX=0.5;entryY=1;entryDx=0;entryDy=0;" edge="1" parent="1" source="2" target="dWubEJJqkw_rELNpz6dQ-234">
          <mxGeometry relative="1" as="geometry" />
        </mxCell>
        <mxCell id="2" value="Landing Page" style="whiteSpace=wrap;rounded=1;shadow=1;fillColor=#10739E;strokeColor=none;fontColor=#FFFFFF;fontStyle=1;fontSize=24" parent="1" vertex="1">
          <mxGeometry x="1600" y="-640" width="340" height="60" as="geometry" />
        </mxCell>
        <mxCell id="3" value="Computer" style="whiteSpace=wrap;rounded=1;fillColor=#F2931E;strokeColor=none;shadow=1;fontColor=#FFFFFF;fontStyle=1;fontSize=14" parent="1" vertex="1">
          <mxGeometry x="-800" y="-540.0000000000002" width="140" height="60" as="geometry" />
        </mxCell>
        <mxCell id="4" value="Tablets" style="whiteSpace=wrap;rounded=1;fillColor=#F2931E;strokeColor=none;shadow=1;fontColor=#FFFFFF;fontStyle=1;fontSize=14" parent="1" vertex="1">
          <mxGeometry x="200" y="-540.0000000000002" width="140" height="60" as="geometry" />
        </mxCell>
        <mxCell id="5" value="Showcase Item" style="whiteSpace=wrap;rounded=1;fillColor=#F2931E;strokeColor=none;shadow=1;fontColor=#FFFFFF;fontStyle=1;fontSize=14" parent="1" vertex="1">
          <mxGeometry x="3110" y="-540.0000000000002" width="140" height="60" as="geometry" />
        </mxCell>
        <mxCell id="7" value="Accessories" style="whiteSpace=wrap;rounded=1;fillColor=#F2931E;strokeColor=none;shadow=1;fontColor=#FFFFFF;fontStyle=1;fontSize=14" parent="1" vertex="1">
          <mxGeometry x="2240" y="-540.0000000000002" width="140" height="60" as="geometry" />
        </mxCell>
        <mxCell id="8" value="Cart/Orders" style="whiteSpace=wrap;rounded=1;fillColor=#F2931E;strokeColor=none;shadow=1;fontColor=#FFFFFF;fontStyle=1;fontSize=14" parent="1" vertex="1">
          <mxGeometry x="2890" y="-540.0000000000002" width="140" height="60" as="geometry" />
        </mxCell>
        <mxCell id="10" value="Brand 3" style="whiteSpace=wrap;rounded=1;fillColor=#12AAB5;strokeColor=none;shadow=1;fontColor=#FFFFFF;" parent="1" vertex="1">
          <mxGeometry x="-670" y="-389.9999999999999" width="120" height="60" as="geometry" />
        </mxCell>
        <mxCell id="12" value="Brand 4" style="whiteSpace=wrap;rounded=1;fillColor=#12AAB5;strokeColor=none;shadow=1;fontColor=#FFFFFF;" parent="1" vertex="1">
          <mxGeometry x="-440" y="-389.9999999999999" width="120" height="60" as="geometry" />
        </mxCell>
        <mxCell id="103" value="" style="edgeStyle=elbowEdgeStyle;elbow=vertical;rounded=0;fontColor=#000000;endArrow=none;endFill=0;strokeWidth=8;strokeColor=#23445D;" parent="1" source="3" target="10" edge="1">
          <mxGeometry width="100" height="100" relative="1" as="geometry">
            <mxPoint x="-690" y="-400" as="sourcePoint" />
            <mxPoint x="-590" y="-500" as="targetPoint" />
          </mxGeometry>
        </mxCell>
        <mxCell id="104" value="" style="edgeStyle=elbowEdgeStyle;elbow=vertical;rounded=0;fontColor=#000000;endArrow=none;endFill=0;strokeWidth=8;strokeColor=#23445D;" parent="1" source="3" target="12" edge="1">
          <mxGeometry width="100" height="100" relative="1" as="geometry">
            <mxPoint x="-350" y="-400" as="sourcePoint" />
            <mxPoint x="-250" y="-500" as="targetPoint" />
          </mxGeometry>
        </mxCell>
        <mxCell id="105" value="" style="edgeStyle=elbowEdgeStyle;elbow=horizontal;rounded=0;fontColor=#000000;endArrow=none;endFill=0;strokeWidth=8;strokeColor=#23445D;" parent="1" source="10" edge="1">
          <mxGeometry width="100" height="100" relative="1" as="geometry">
            <mxPoint x="-730" y="-210" as="sourcePoint" />
            <mxPoint x="-670" y="-260" as="targetPoint" />
            <Array as="points">
              <mxPoint x="-690" y="-310" />
            </Array>
          </mxGeometry>
        </mxCell>
        <mxCell id="106" value="" style="edgeStyle=elbowEdgeStyle;elbow=horizontal;rounded=0;fontColor=#000000;endArrow=none;endFill=0;strokeWidth=8;strokeColor=#23445D;" parent="1" source="10" edge="1">
          <mxGeometry width="100" height="100" relative="1" as="geometry">
            <mxPoint x="-660" y="-350" as="sourcePoint" />
            <mxPoint x="-670" y="-180" as="targetPoint" />
            <Array as="points">
              <mxPoint x="-690" y="-290" />
            </Array>
          </mxGeometry>
        </mxCell>
        <mxCell id="109" value="" style="edgeStyle=elbowEdgeStyle;elbow=horizontal;rounded=0;fontColor=#000000;endArrow=none;endFill=0;strokeWidth=8;strokeColor=#23445D;" parent="1" source="10" edge="1">
          <mxGeometry width="100" height="100" relative="1" as="geometry">
            <mxPoint x="-640" y="-330" as="sourcePoint" />
            <mxPoint x="-670" y="-20" as="targetPoint" />
            <Array as="points">
              <mxPoint x="-690" y="-280" />
            </Array>
          </mxGeometry>
        </mxCell>
        <mxCell id="110" value="" style="edgeStyle=elbowEdgeStyle;elbow=horizontal;rounded=0;fontColor=#000000;endArrow=none;endFill=0;strokeWidth=8;strokeColor=#23445D;" parent="1" source="10" edge="1">
          <mxGeometry width="100" height="100" relative="1" as="geometry">
            <mxPoint x="-630" y="-320" as="sourcePoint" />
            <mxPoint x="-670" y="-100" as="targetPoint" />
            <Array as="points">
              <mxPoint x="-690" y="-260" />
            </Array>
          </mxGeometry>
        </mxCell>
        <mxCell id="111" value="" style="edgeStyle=elbowEdgeStyle;elbow=horizontal;rounded=0;fontColor=#000000;endArrow=none;endFill=0;strokeWidth=8;strokeColor=#23445D;" parent="1" edge="1">
          <mxGeometry width="100" height="100" relative="1" as="geometry">
            <mxPoint x="-450" y="-359.9999999999996" as="sourcePoint" />
            <mxPoint x="-440.00000000000045" y="-260" as="targetPoint" />
            <Array as="points">
              <mxPoint x="-460" y="-310" />
            </Array>
          </mxGeometry>
        </mxCell>
        <mxCell id="112" value="" style="edgeStyle=elbowEdgeStyle;elbow=horizontal;rounded=0;fontColor=#000000;endArrow=none;endFill=0;strokeWidth=8;strokeColor=#23445D;" parent="1" source="12" edge="1">
          <mxGeometry width="100" height="100" relative="1" as="geometry">
            <mxPoint x="-450" y="-359.9999999999996" as="sourcePoint" />
            <mxPoint x="-440" y="-180" as="targetPoint" />
            <Array as="points">
              <mxPoint x="-460" y="-270" />
            </Array>
          </mxGeometry>
        </mxCell>
        <mxCell id="113" value="" style="edgeStyle=elbowEdgeStyle;elbow=horizontal;rounded=0;fontColor=#000000;endArrow=none;endFill=0;strokeWidth=8;strokeColor=#23445D;entryX=0;entryY=0.5;entryDx=0;entryDy=0;" parent="1" source="12" target="dWubEJJqkw_rELNpz6dQ-347" edge="1">
          <mxGeometry width="100" height="100" relative="1" as="geometry">
            <mxPoint x="-450" y="-359.9999999999996" as="sourcePoint" />
            <mxPoint x="-440" y="60" as="targetPoint" />
            <Array as="points">
              <mxPoint x="-460" y="-150" />
            </Array>
          </mxGeometry>
        </mxCell>
        <mxCell id="114" value="" style="edgeStyle=elbowEdgeStyle;elbow=horizontal;rounded=0;fontColor=#000000;endArrow=none;endFill=0;strokeWidth=8;strokeColor=#23445D;" parent="1" source="12" edge="1">
          <mxGeometry width="100" height="100" relative="1" as="geometry">
            <mxPoint x="-450" y="-359.9999999999996" as="sourcePoint" />
            <mxPoint x="-440" y="-20" as="targetPoint" />
            <Array as="points">
              <mxPoint x="-460" y="-190" />
            </Array>
          </mxGeometry>
        </mxCell>
        <mxCell id="229" value="" style="edgeStyle=elbowEdgeStyle;elbow=vertical;rounded=0;fontColor=#000000;endArrow=none;endFill=0;strokeWidth=8;strokeColor=#23445D;" parent="1" source="2" target="3" edge="1">
          <mxGeometry width="100" height="100" relative="1" as="geometry">
            <mxPoint x="-170" y="-550" as="sourcePoint" />
            <mxPoint x="-70" y="-650" as="targetPoint" />
          </mxGeometry>
        </mxCell>
        <mxCell id="231" value="" style="edgeStyle=elbowEdgeStyle;elbow=vertical;rounded=0;fontColor=#000000;endArrow=none;endFill=0;strokeWidth=8;strokeColor=#23445D;entryX=0.5;entryY=0;entryDx=0;entryDy=0;" parent="1" source="2" target="dWubEJJqkw_rELNpz6dQ-433" edge="1">
          <mxGeometry width="100" height="100" relative="1" as="geometry">
            <mxPoint x="-150" y="-530" as="sourcePoint" />
            <mxPoint x="1250" y="-540" as="targetPoint" />
          </mxGeometry>
        </mxCell>
        <mxCell id="232" value="" style="edgeStyle=elbowEdgeStyle;elbow=vertical;rounded=0;fontColor=#000000;endArrow=none;endFill=0;strokeWidth=8;strokeColor=#23445D;" parent="1" source="2" target="7" edge="1">
          <mxGeometry width="100" height="100" relative="1" as="geometry">
            <mxPoint x="-140" y="-520" as="sourcePoint" />
            <mxPoint x="-40" y="-620" as="targetPoint" />
          </mxGeometry>
        </mxCell>
        <mxCell id="233" value="" style="edgeStyle=elbowEdgeStyle;elbow=vertical;rounded=0;fontColor=#000000;endArrow=none;endFill=0;strokeWidth=8;strokeColor=#23445D;" parent="1" source="2" target="8" edge="1">
          <mxGeometry width="100" height="100" relative="1" as="geometry">
            <mxPoint x="-130" y="-510" as="sourcePoint" />
            <mxPoint x="-30" y="-610" as="targetPoint" />
          </mxGeometry>
        </mxCell>
        <mxCell id="dWubEJJqkw_rELNpz6dQ-234" value="Login" style="whiteSpace=wrap;rounded=1;shadow=1;fillColor=#1ba1e2;strokeColor=#006EAF;fontColor=#ffffff;fontStyle=1;fontSize=24" vertex="1" parent="1">
          <mxGeometry x="1600" y="-760" width="340" height="60" as="geometry" />
        </mxCell>
        <mxCell id="dWubEJJqkw_rELNpz6dQ-237" value="" style="edgeStyle=elbowEdgeStyle;elbow=vertical;rounded=0;fontColor=#000000;endArrow=none;endFill=0;strokeWidth=8;strokeColor=#23445D;exitX=0.5;exitY=1;exitDx=0;exitDy=0;entryX=0.5;entryY=0;entryDx=0;entryDy=0;" edge="1" parent="1" source="dWubEJJqkw_rELNpz6dQ-234" target="2">
          <mxGeometry width="100" height="100" relative="1" as="geometry">
            <mxPoint x="1430" y="-850" as="sourcePoint" />
            <mxPoint x="2340" y="-680.0000000000002" as="targetPoint" />
          </mxGeometry>
        </mxCell>
        <mxCell id="dWubEJJqkw_rELNpz6dQ-238" value="" style="edgeStyle=elbowEdgeStyle;elbow=vertical;rounded=0;fontColor=#000000;endArrow=none;endFill=0;strokeWidth=8;strokeColor=#23445D;exitX=0.5;exitY=1;exitDx=0;exitDy=0;entryX=0.5;entryY=0;entryDx=0;entryDy=0;" edge="1" parent="1" source="2" target="5">
          <mxGeometry width="100" height="100" relative="1" as="geometry">
            <mxPoint x="530" y="-570" as="sourcePoint" />
            <mxPoint x="1070" y="-510" as="targetPoint" />
          </mxGeometry>
        </mxCell>
        <mxCell id="dWubEJJqkw_rELNpz6dQ-284" value="Contact" style="whiteSpace=wrap;rounded=1;fillColor=#F2931E;strokeColor=none;shadow=1;fontColor=#FFFFFF;fontStyle=1;fontSize=14" vertex="1" parent="1">
          <mxGeometry x="3310" y="-540.0000000000002" width="140" height="60" as="geometry" />
        </mxCell>
        <mxCell id="dWubEJJqkw_rELNpz6dQ-310" value="Brand 1" style="whiteSpace=wrap;rounded=1;fillColor=#12AAB5;strokeColor=none;shadow=1;fontColor=#FFFFFF;" vertex="1" parent="1">
          <mxGeometry x="-1140" y="-389.9999999999999" width="120" height="60" as="geometry" />
        </mxCell>
        <mxCell id="dWubEJJqkw_rELNpz6dQ-311" value="Brand 2" style="whiteSpace=wrap;rounded=1;fillColor=#12AAB5;strokeColor=none;shadow=1;fontColor=#FFFFFF;" vertex="1" parent="1">
          <mxGeometry x="-900" y="-389.9999999999999" width="120" height="60" as="geometry" />
        </mxCell>
        <mxCell id="dWubEJJqkw_rELNpz6dQ-312" value="Product 1" style="whiteSpace=wrap;rounded=1;fillColor=#999999;strokeColor=none;shadow=1;fontColor=#FFFFFF;fontStyle=0" vertex="1" parent="1">
          <mxGeometry x="-1140" y="-289.9999999999999" width="120" height="60" as="geometry" />
        </mxCell>
        <mxCell id="dWubEJJqkw_rELNpz6dQ-313" value="Product 2" style="whiteSpace=wrap;rounded=1;fillColor=#999999;strokeColor=none;shadow=1;fontColor=#FFFFFF;fontStyle=0" vertex="1" parent="1">
          <mxGeometry x="-1140" y="-209.9999999999999" width="120" height="60" as="geometry" />
        </mxCell>
        <mxCell id="dWubEJJqkw_rELNpz6dQ-314" value="Product 3" style="whiteSpace=wrap;rounded=1;fillColor=#999999;strokeColor=none;shadow=1;fontColor=#FFFFFF;fontStyle=0" vertex="1" parent="1">
          <mxGeometry x="-1140" y="-129.9999999999999" width="120" height="60" as="geometry" />
        </mxCell>
        <mxCell id="dWubEJJqkw_rELNpz6dQ-315" value="Product 4" style="whiteSpace=wrap;rounded=1;fillColor=#999999;strokeColor=none;shadow=1;fontColor=#FFFFFF;fontStyle=0" vertex="1" parent="1">
          <mxGeometry x="-1139.9999999999998" y="-49.999999999999886" width="120" height="60" as="geometry" />
        </mxCell>
        <mxCell id="dWubEJJqkw_rELNpz6dQ-322" value="" style="edgeStyle=elbowEdgeStyle;elbow=horizontal;rounded=0;fontColor=#000000;endArrow=none;endFill=0;strokeWidth=8;strokeColor=#23445D;" edge="1" parent="1" source="dWubEJJqkw_rELNpz6dQ-310" target="dWubEJJqkw_rELNpz6dQ-312">
          <mxGeometry width="100" height="100" relative="1" as="geometry">
            <mxPoint x="-1200" y="-210" as="sourcePoint" />
            <mxPoint x="-1100" y="-310" as="targetPoint" />
            <Array as="points">
              <mxPoint x="-1160" y="-310" />
            </Array>
          </mxGeometry>
        </mxCell>
        <mxCell id="dWubEJJqkw_rELNpz6dQ-323" value="" style="edgeStyle=elbowEdgeStyle;elbow=horizontal;rounded=0;fontColor=#000000;endArrow=none;endFill=0;strokeWidth=8;strokeColor=#23445D;" edge="1" parent="1" source="dWubEJJqkw_rELNpz6dQ-310" target="dWubEJJqkw_rELNpz6dQ-313">
          <mxGeometry width="100" height="100" relative="1" as="geometry">
            <mxPoint x="-1130" y="-350" as="sourcePoint" />
            <mxPoint x="-1130" y="-250" as="targetPoint" />
            <Array as="points">
              <mxPoint x="-1160" y="-290" />
            </Array>
          </mxGeometry>
        </mxCell>
        <mxCell id="dWubEJJqkw_rELNpz6dQ-325" value="" style="edgeStyle=elbowEdgeStyle;elbow=horizontal;rounded=0;fontColor=#000000;endArrow=none;endFill=0;strokeWidth=8;strokeColor=#23445D;" edge="1" parent="1" source="dWubEJJqkw_rELNpz6dQ-310" target="dWubEJJqkw_rELNpz6dQ-315">
          <mxGeometry width="100" height="100" relative="1" as="geometry">
            <mxPoint x="-1110" y="-330" as="sourcePoint" />
            <mxPoint x="-1110" y="-230" as="targetPoint" />
            <Array as="points">
              <mxPoint x="-1160" y="-280" />
            </Array>
          </mxGeometry>
        </mxCell>
        <mxCell id="dWubEJJqkw_rELNpz6dQ-326" value="" style="edgeStyle=elbowEdgeStyle;elbow=horizontal;rounded=0;fontColor=#000000;endArrow=none;endFill=0;strokeWidth=8;strokeColor=#23445D;" edge="1" parent="1" source="dWubEJJqkw_rELNpz6dQ-310" target="dWubEJJqkw_rELNpz6dQ-314">
          <mxGeometry width="100" height="100" relative="1" as="geometry">
            <mxPoint x="-1100" y="-320" as="sourcePoint" />
            <mxPoint x="-1100" y="-220" as="targetPoint" />
            <Array as="points">
              <mxPoint x="-1160" y="-260" />
            </Array>
          </mxGeometry>
        </mxCell>
        <mxCell id="dWubEJJqkw_rELNpz6dQ-327" value="" style="edgeStyle=elbowEdgeStyle;elbow=horizontal;rounded=0;fontColor=#000000;endArrow=none;endFill=0;strokeWidth=8;strokeColor=#23445D;entryX=0;entryY=0.5;entryDx=0;entryDy=0;" edge="1" parent="1" target="dWubEJJqkw_rELNpz6dQ-336">
          <mxGeometry width="100" height="100" relative="1" as="geometry">
            <mxPoint x="-909.9999999999998" y="-359.99999999999955" as="sourcePoint" />
            <mxPoint x="-900.0000000000005" y="-260" as="targetPoint" />
            <Array as="points">
              <mxPoint x="-920" y="-310" />
            </Array>
          </mxGeometry>
        </mxCell>
        <mxCell id="dWubEJJqkw_rELNpz6dQ-328" value="" style="edgeStyle=elbowEdgeStyle;elbow=horizontal;rounded=0;fontColor=#000000;endArrow=none;endFill=0;strokeWidth=8;strokeColor=#23445D;" edge="1" parent="1" source="dWubEJJqkw_rELNpz6dQ-311">
          <mxGeometry width="100" height="100" relative="1" as="geometry">
            <mxPoint x="-910" y="-359.9999999999996" as="sourcePoint" />
            <mxPoint x="-900" y="-180" as="targetPoint" />
            <Array as="points">
              <mxPoint x="-920" y="-270" />
            </Array>
          </mxGeometry>
        </mxCell>
        <mxCell id="dWubEJJqkw_rELNpz6dQ-330" value="" style="edgeStyle=elbowEdgeStyle;elbow=horizontal;rounded=0;fontColor=#000000;endArrow=none;endFill=0;strokeWidth=8;strokeColor=#23445D;" edge="1" parent="1" source="dWubEJJqkw_rELNpz6dQ-311">
          <mxGeometry width="100" height="100" relative="1" as="geometry">
            <mxPoint x="-910" y="-359.9999999999996" as="sourcePoint" />
            <mxPoint x="-900" y="-20" as="targetPoint" />
            <Array as="points">
              <mxPoint x="-920" y="-190" />
            </Array>
          </mxGeometry>
        </mxCell>
        <mxCell id="dWubEJJqkw_rELNpz6dQ-331" value="" style="edgeStyle=elbowEdgeStyle;elbow=horizontal;rounded=0;fontColor=#000000;endArrow=none;endFill=0;strokeWidth=8;strokeColor=#23445D;" edge="1" parent="1" source="dWubEJJqkw_rELNpz6dQ-311" target="dWubEJJqkw_rELNpz6dQ-338">
          <mxGeometry width="100" height="100" relative="1" as="geometry">
            <mxPoint x="-910" y="-359.9999999999996" as="sourcePoint" />
            <mxPoint x="-900.0000000000005" y="-100" as="targetPoint" />
            <Array as="points">
              <mxPoint x="-920" y="-230" />
            </Array>
          </mxGeometry>
        </mxCell>
        <mxCell id="dWubEJJqkw_rELNpz6dQ-332" value="" style="edgeStyle=elbowEdgeStyle;elbow=vertical;rounded=0;fontColor=#000000;endArrow=none;endFill=0;strokeWidth=8;strokeColor=#23445D;entryX=0.5;entryY=0;entryDx=0;entryDy=0;exitX=0.5;exitY=1;exitDx=0;exitDy=0;" edge="1" parent="1" source="3" target="dWubEJJqkw_rELNpz6dQ-311">
          <mxGeometry width="100" height="100" relative="1" as="geometry">
            <mxPoint x="-950" y="-500" as="sourcePoint" />
            <mxPoint x="-660" y="-410" as="targetPoint" />
          </mxGeometry>
        </mxCell>
        <mxCell id="dWubEJJqkw_rELNpz6dQ-334" value="" style="edgeStyle=elbowEdgeStyle;elbow=vertical;rounded=0;fontColor=#000000;endArrow=none;endFill=0;strokeWidth=8;strokeColor=#23445D;entryX=0.5;entryY=0;entryDx=0;entryDy=0;exitX=0.5;exitY=1;exitDx=0;exitDy=0;" edge="1" parent="1" source="3" target="dWubEJJqkw_rELNpz6dQ-310">
          <mxGeometry width="100" height="100" relative="1" as="geometry">
            <mxPoint x="-659.9999999999998" y="-470.0000000000002" as="sourcePoint" />
            <mxPoint x="-749.9999999999998" y="-380" as="targetPoint" />
          </mxGeometry>
        </mxCell>
        <mxCell id="dWubEJJqkw_rELNpz6dQ-336" value="Product 1" style="whiteSpace=wrap;rounded=1;fillColor=#999999;strokeColor=none;shadow=1;fontColor=#FFFFFF;fontStyle=0" vertex="1" parent="1">
          <mxGeometry x="-900" y="-289.9999999999999" width="120" height="60" as="geometry" />
        </mxCell>
        <mxCell id="dWubEJJqkw_rELNpz6dQ-337" value="Product 2" style="whiteSpace=wrap;rounded=1;fillColor=#999999;strokeColor=none;shadow=1;fontColor=#FFFFFF;fontStyle=0" vertex="1" parent="1">
          <mxGeometry x="-899.9999999999999" y="-209.9999999999999" width="120" height="60" as="geometry" />
        </mxCell>
        <mxCell id="dWubEJJqkw_rELNpz6dQ-338" value="Product 3" style="whiteSpace=wrap;rounded=1;fillColor=#999999;strokeColor=none;shadow=1;fontColor=#FFFFFF;fontStyle=0" vertex="1" parent="1">
          <mxGeometry x="-900" y="-129.9999999999999" width="120" height="60" as="geometry" />
        </mxCell>
        <mxCell id="dWubEJJqkw_rELNpz6dQ-339" value="Product 4" style="whiteSpace=wrap;rounded=1;fillColor=#999999;strokeColor=none;shadow=1;fontColor=#FFFFFF;fontStyle=0" vertex="1" parent="1">
          <mxGeometry x="-899.9999999999998" y="-49.999999999999886" width="120" height="60" as="geometry" />
        </mxCell>
        <mxCell id="dWubEJJqkw_rELNpz6dQ-341" value="Product 1" style="whiteSpace=wrap;rounded=1;fillColor=#999999;strokeColor=none;shadow=1;fontColor=#FFFFFF;fontStyle=0" vertex="1" parent="1">
          <mxGeometry x="-670" y="-289.9999999999999" width="120" height="60" as="geometry" />
        </mxCell>
        <mxCell id="dWubEJJqkw_rELNpz6dQ-342" value="Product 2" style="whiteSpace=wrap;rounded=1;fillColor=#999999;strokeColor=none;shadow=1;fontColor=#FFFFFF;fontStyle=0" vertex="1" parent="1">
          <mxGeometry x="-669.9999999999999" y="-209.9999999999999" width="120" height="60" as="geometry" />
        </mxCell>
        <mxCell id="dWubEJJqkw_rELNpz6dQ-343" value="Product 3" style="whiteSpace=wrap;rounded=1;fillColor=#999999;strokeColor=none;shadow=1;fontColor=#FFFFFF;fontStyle=0" vertex="1" parent="1">
          <mxGeometry x="-670" y="-129.9999999999999" width="120" height="60" as="geometry" />
        </mxCell>
        <mxCell id="dWubEJJqkw_rELNpz6dQ-344" value="Product 4" style="whiteSpace=wrap;rounded=1;fillColor=#999999;strokeColor=none;shadow=1;fontColor=#FFFFFF;fontStyle=0" vertex="1" parent="1">
          <mxGeometry x="-669.9999999999998" y="-49.999999999999886" width="120" height="60" as="geometry" />
        </mxCell>
        <mxCell id="dWubEJJqkw_rELNpz6dQ-345" value="Product 1" style="whiteSpace=wrap;rounded=1;fillColor=#999999;strokeColor=none;shadow=1;fontColor=#FFFFFF;fontStyle=0" vertex="1" parent="1">
          <mxGeometry x="-440.00000000000006" y="-289.9999999999999" width="120" height="60" as="geometry" />
        </mxCell>
        <mxCell id="dWubEJJqkw_rELNpz6dQ-346" value="Product 2" style="whiteSpace=wrap;rounded=1;fillColor=#999999;strokeColor=none;shadow=1;fontColor=#FFFFFF;fontStyle=0" vertex="1" parent="1">
          <mxGeometry x="-439.9999999999999" y="-209.9999999999999" width="120" height="60" as="geometry" />
        </mxCell>
        <mxCell id="dWubEJJqkw_rELNpz6dQ-347" value="Product 3" style="whiteSpace=wrap;rounded=1;fillColor=#999999;strokeColor=none;shadow=1;fontColor=#FFFFFF;fontStyle=0" vertex="1" parent="1">
          <mxGeometry x="-439.99999999999994" y="-129.9999999999999" width="120" height="60" as="geometry" />
        </mxCell>
        <mxCell id="dWubEJJqkw_rELNpz6dQ-348" value="Product 4" style="whiteSpace=wrap;rounded=1;fillColor=#999999;strokeColor=none;shadow=1;fontColor=#FFFFFF;fontStyle=0" vertex="1" parent="1">
          <mxGeometry x="-439.9999999999998" y="-49.999999999999886" width="120" height="60" as="geometry" />
        </mxCell>
        <mxCell id="dWubEJJqkw_rELNpz6dQ-352" value="" style="edgeStyle=elbowEdgeStyle;elbow=horizontal;rounded=0;fontColor=#000000;endArrow=none;endFill=0;strokeWidth=8;strokeColor=#23445D;exitX=1;exitY=0.5;exitDx=0;exitDy=0;entryX=1;entryY=0.5;entryDx=0;entryDy=0;" edge="1" parent="1" source="dWubEJJqkw_rELNpz6dQ-312" target="dWubEJJqkw_rELNpz6dQ-313">
          <mxGeometry width="100" height="100" relative="1" as="geometry">
            <mxPoint x="-1130" y="-350" as="sourcePoint" />
            <mxPoint x="-1130" y="-90" as="targetPoint" />
            <Array as="points">
              <mxPoint x="-960" y="-220" />
            </Array>
          </mxGeometry>
        </mxCell>
        <mxCell id="dWubEJJqkw_rELNpz6dQ-353" value="" style="edgeStyle=elbowEdgeStyle;elbow=horizontal;rounded=0;fontColor=#000000;endArrow=none;endFill=0;strokeWidth=8;strokeColor=#23445D;exitX=1;exitY=0.5;exitDx=0;exitDy=0;" edge="1" parent="1" source="dWubEJJqkw_rELNpz6dQ-314">
          <mxGeometry width="100" height="100" relative="1" as="geometry">
            <mxPoint x="-1010" y="-250" as="sourcePoint" />
            <mxPoint x="-960" y="-180" as="targetPoint" />
            <Array as="points">
              <mxPoint x="-960" y="-140" />
            </Array>
          </mxGeometry>
        </mxCell>
        <mxCell id="dWubEJJqkw_rELNpz6dQ-354" value="" style="edgeStyle=elbowEdgeStyle;elbow=horizontal;rounded=0;fontColor=#000000;endArrow=none;endFill=0;strokeWidth=8;strokeColor=#23445D;exitX=1;exitY=0.5;exitDx=0;exitDy=0;" edge="1" parent="1" source="dWubEJJqkw_rELNpz6dQ-315">
          <mxGeometry width="100" height="100" relative="1" as="geometry">
            <mxPoint x="-1010" y="-20" as="sourcePoint" />
            <mxPoint x="-960" y="-100" as="targetPoint" />
            <Array as="points">
              <mxPoint x="-960" y="-50" />
            </Array>
          </mxGeometry>
        </mxCell>
        <mxCell id="dWubEJJqkw_rELNpz6dQ-355" value="" style="edgeStyle=elbowEdgeStyle;elbow=horizontal;rounded=0;fontColor=#000000;endArrow=none;endFill=0;strokeWidth=8;strokeColor=#23445D;exitX=0;exitY=0.5;exitDx=0;exitDy=0;" edge="1" parent="1" source="dWubEJJqkw_rELNpz6dQ-356">
          <mxGeometry width="100" height="100" relative="1" as="geometry">
            <mxPoint x="-820" y="300" as="sourcePoint" />
            <mxPoint x="-960" y="-20" as="targetPoint" />
            <Array as="points">
              <mxPoint x="-960" y="150" />
            </Array>
          </mxGeometry>
        </mxCell>
        <mxCell id="dWubEJJqkw_rELNpz6dQ-356" value="Cart/Payment" style="whiteSpace=wrap;rounded=1;fillColor=#60a917;strokeColor=#2D7600;shadow=1;fontColor=#ffffff;" vertex="1" parent="1">
          <mxGeometry x="-680" y="280.0000000000001" width="120" height="60" as="geometry" />
        </mxCell>
        <mxCell id="dWubEJJqkw_rELNpz6dQ-357" value="" style="edgeStyle=elbowEdgeStyle;elbow=horizontal;rounded=0;fontColor=#000000;endArrow=none;endFill=0;strokeWidth=8;strokeColor=#23445D;exitX=1;exitY=0.5;exitDx=0;exitDy=0;entryX=1;entryY=0.5;entryDx=0;entryDy=0;" edge="1" parent="1">
          <mxGeometry width="100" height="100" relative="1" as="geometry">
            <mxPoint x="-780" y="-260" as="sourcePoint" />
            <mxPoint x="-780" y="-180" as="targetPoint" />
            <Array as="points">
              <mxPoint x="-720" y="-220" />
            </Array>
          </mxGeometry>
        </mxCell>
        <mxCell id="dWubEJJqkw_rELNpz6dQ-358" value="" style="edgeStyle=elbowEdgeStyle;elbow=horizontal;rounded=0;fontColor=#000000;endArrow=none;endFill=0;strokeWidth=8;strokeColor=#23445D;exitX=1;exitY=0.5;exitDx=0;exitDy=0;" edge="1" parent="1">
          <mxGeometry width="100" height="100" relative="1" as="geometry">
            <mxPoint x="-780" y="-100" as="sourcePoint" />
            <mxPoint x="-720" y="-180" as="targetPoint" />
            <Array as="points">
              <mxPoint x="-720" y="-140" />
            </Array>
          </mxGeometry>
        </mxCell>
        <mxCell id="dWubEJJqkw_rELNpz6dQ-359" value="" style="edgeStyle=elbowEdgeStyle;elbow=horizontal;rounded=0;fontColor=#000000;endArrow=none;endFill=0;strokeWidth=8;strokeColor=#23445D;exitX=1;exitY=0.5;exitDx=0;exitDy=0;" edge="1" parent="1">
          <mxGeometry width="100" height="100" relative="1" as="geometry">
            <mxPoint x="-780" y="-20" as="sourcePoint" />
            <mxPoint x="-720" y="-100" as="targetPoint" />
            <Array as="points">
              <mxPoint x="-720" y="-50" />
            </Array>
          </mxGeometry>
        </mxCell>
        <mxCell id="dWubEJJqkw_rELNpz6dQ-360" value="" style="edgeStyle=elbowEdgeStyle;elbow=horizontal;rounded=0;fontColor=#000000;endArrow=none;endFill=0;strokeWidth=8;strokeColor=#23445D;exitX=1;exitY=0.5;exitDx=0;exitDy=0;entryX=1;entryY=0.5;entryDx=0;entryDy=0;" edge="1" parent="1">
          <mxGeometry width="100" height="100" relative="1" as="geometry">
            <mxPoint x="-550" y="-260" as="sourcePoint" />
            <mxPoint x="-550" y="-180" as="targetPoint" />
            <Array as="points">
              <mxPoint x="-490" y="-220" />
            </Array>
          </mxGeometry>
        </mxCell>
        <mxCell id="dWubEJJqkw_rELNpz6dQ-361" value="" style="edgeStyle=elbowEdgeStyle;elbow=horizontal;rounded=0;fontColor=#000000;endArrow=none;endFill=0;strokeWidth=8;strokeColor=#23445D;exitX=1;exitY=0.5;exitDx=0;exitDy=0;" edge="1" parent="1">
          <mxGeometry width="100" height="100" relative="1" as="geometry">
            <mxPoint x="-550" y="-100" as="sourcePoint" />
            <mxPoint x="-490" y="-180" as="targetPoint" />
            <Array as="points">
              <mxPoint x="-490" y="-140" />
            </Array>
          </mxGeometry>
        </mxCell>
        <mxCell id="dWubEJJqkw_rELNpz6dQ-362" value="" style="edgeStyle=elbowEdgeStyle;elbow=horizontal;rounded=0;fontColor=#000000;endArrow=none;endFill=0;strokeWidth=8;strokeColor=#23445D;exitX=1;exitY=0.5;exitDx=0;exitDy=0;" edge="1" parent="1">
          <mxGeometry width="100" height="100" relative="1" as="geometry">
            <mxPoint x="-550" y="-20" as="sourcePoint" />
            <mxPoint x="-490" y="-100" as="targetPoint" />
            <Array as="points">
              <mxPoint x="-490" y="-50" />
            </Array>
          </mxGeometry>
        </mxCell>
        <mxCell id="dWubEJJqkw_rELNpz6dQ-363" value="" style="edgeStyle=elbowEdgeStyle;elbow=horizontal;rounded=0;fontColor=#000000;endArrow=none;endFill=0;strokeWidth=8;strokeColor=#23445D;exitX=1;exitY=0.5;exitDx=0;exitDy=0;entryX=1;entryY=0.5;entryDx=0;entryDy=0;" edge="1" parent="1">
          <mxGeometry width="100" height="100" relative="1" as="geometry">
            <mxPoint x="-320" y="-260" as="sourcePoint" />
            <mxPoint x="-320" y="-180" as="targetPoint" />
            <Array as="points">
              <mxPoint x="-260" y="-220" />
            </Array>
          </mxGeometry>
        </mxCell>
        <mxCell id="dWubEJJqkw_rELNpz6dQ-364" value="" style="edgeStyle=elbowEdgeStyle;elbow=horizontal;rounded=0;fontColor=#000000;endArrow=none;endFill=0;strokeWidth=8;strokeColor=#23445D;exitX=1;exitY=0.5;exitDx=0;exitDy=0;" edge="1" parent="1">
          <mxGeometry width="100" height="100" relative="1" as="geometry">
            <mxPoint x="-320" y="-100" as="sourcePoint" />
            <mxPoint x="-260" y="-180" as="targetPoint" />
            <Array as="points">
              <mxPoint x="-260" y="-140" />
            </Array>
          </mxGeometry>
        </mxCell>
        <mxCell id="dWubEJJqkw_rELNpz6dQ-365" value="" style="edgeStyle=elbowEdgeStyle;elbow=horizontal;rounded=0;fontColor=#000000;endArrow=none;endFill=0;strokeWidth=8;strokeColor=#23445D;exitX=1;exitY=0.5;exitDx=0;exitDy=0;" edge="1" parent="1">
          <mxGeometry width="100" height="100" relative="1" as="geometry">
            <mxPoint x="-320" y="-20" as="sourcePoint" />
            <mxPoint x="-260" y="-100" as="targetPoint" />
            <Array as="points">
              <mxPoint x="-260" y="-50" />
            </Array>
          </mxGeometry>
        </mxCell>
        <mxCell id="dWubEJJqkw_rELNpz6dQ-371" value="" style="edgeStyle=elbowEdgeStyle;elbow=horizontal;rounded=0;fontColor=#000000;endArrow=none;endFill=0;strokeWidth=8;strokeColor=#23445D;exitX=1;exitY=0.5;exitDx=0;exitDy=0;" edge="1" parent="1" source="dWubEJJqkw_rELNpz6dQ-356">
          <mxGeometry width="100" height="100" relative="1" as="geometry">
            <mxPoint x="-490" y="280" as="sourcePoint" />
            <mxPoint x="-490" y="-20" as="targetPoint" />
            <Array as="points">
              <mxPoint x="-490" y="140" />
              <mxPoint x="-490" y="140" />
              <mxPoint x="-510" y="310" />
              <mxPoint x="-490" y="30" />
            </Array>
          </mxGeometry>
        </mxCell>
        <mxCell id="dWubEJJqkw_rELNpz6dQ-372" value="" style="edgeStyle=elbowEdgeStyle;elbow=horizontal;rounded=0;fontColor=#000000;endArrow=none;endFill=0;strokeWidth=8;strokeColor=#23445D;" edge="1" parent="1">
          <mxGeometry width="100" height="100" relative="1" as="geometry">
            <mxPoint x="-490" y="310" as="sourcePoint" />
            <mxPoint x="-260" y="-20" as="targetPoint" />
            <Array as="points">
              <mxPoint x="-260" y="40" />
            </Array>
          </mxGeometry>
        </mxCell>
        <mxCell id="dWubEJJqkw_rELNpz6dQ-373" value="Brand 3" style="whiteSpace=wrap;rounded=1;fillColor=#12AAB5;strokeColor=none;shadow=1;fontColor=#FFFFFF;" vertex="1" parent="1">
          <mxGeometry x="320" y="-389.9999999999999" width="120" height="60" as="geometry" />
        </mxCell>
        <mxCell id="dWubEJJqkw_rELNpz6dQ-374" value="Brand 4" style="whiteSpace=wrap;rounded=1;fillColor=#12AAB5;strokeColor=none;shadow=1;fontColor=#FFFFFF;" vertex="1" parent="1">
          <mxGeometry x="550" y="-389.9999999999999" width="120" height="60" as="geometry" />
        </mxCell>
        <mxCell id="dWubEJJqkw_rELNpz6dQ-375" value="" style="edgeStyle=elbowEdgeStyle;elbow=vertical;rounded=0;fontColor=#000000;endArrow=none;endFill=0;strokeWidth=8;strokeColor=#23445D;exitX=0.5;exitY=1;exitDx=0;exitDy=0;" edge="1" parent="1" target="dWubEJJqkw_rELNpz6dQ-373" source="4">
          <mxGeometry width="100" height="100" relative="1" as="geometry">
            <mxPoint x="260" y="-480" as="sourcePoint" />
            <mxPoint x="400" y="-500" as="targetPoint" />
          </mxGeometry>
        </mxCell>
        <mxCell id="dWubEJJqkw_rELNpz6dQ-376" value="" style="edgeStyle=elbowEdgeStyle;elbow=vertical;rounded=0;fontColor=#000000;endArrow=none;endFill=0;strokeWidth=8;strokeColor=#23445D;" edge="1" parent="1" target="dWubEJJqkw_rELNpz6dQ-374">
          <mxGeometry width="100" height="100" relative="1" as="geometry">
            <mxPoint x="270" y="-480" as="sourcePoint" />
            <mxPoint x="740" y="-500" as="targetPoint" />
          </mxGeometry>
        </mxCell>
        <mxCell id="dWubEJJqkw_rELNpz6dQ-377" value="" style="edgeStyle=elbowEdgeStyle;elbow=horizontal;rounded=0;fontColor=#000000;endArrow=none;endFill=0;strokeWidth=8;strokeColor=#23445D;" edge="1" parent="1" source="dWubEJJqkw_rELNpz6dQ-373">
          <mxGeometry width="100" height="100" relative="1" as="geometry">
            <mxPoint x="260" y="-210" as="sourcePoint" />
            <mxPoint x="320" y="-260" as="targetPoint" />
            <Array as="points">
              <mxPoint x="300" y="-310" />
            </Array>
          </mxGeometry>
        </mxCell>
        <mxCell id="dWubEJJqkw_rELNpz6dQ-378" value="" style="edgeStyle=elbowEdgeStyle;elbow=horizontal;rounded=0;fontColor=#000000;endArrow=none;endFill=0;strokeWidth=8;strokeColor=#23445D;" edge="1" parent="1" source="dWubEJJqkw_rELNpz6dQ-373">
          <mxGeometry width="100" height="100" relative="1" as="geometry">
            <mxPoint x="330" y="-350" as="sourcePoint" />
            <mxPoint x="320" y="-180" as="targetPoint" />
            <Array as="points">
              <mxPoint x="300" y="-290" />
            </Array>
          </mxGeometry>
        </mxCell>
        <mxCell id="dWubEJJqkw_rELNpz6dQ-379" value="" style="edgeStyle=elbowEdgeStyle;elbow=horizontal;rounded=0;fontColor=#000000;endArrow=none;endFill=0;strokeWidth=8;strokeColor=#23445D;" edge="1" parent="1" source="dWubEJJqkw_rELNpz6dQ-373">
          <mxGeometry width="100" height="100" relative="1" as="geometry">
            <mxPoint x="350" y="-330" as="sourcePoint" />
            <mxPoint x="320" y="-20" as="targetPoint" />
            <Array as="points">
              <mxPoint x="300" y="-280" />
            </Array>
          </mxGeometry>
        </mxCell>
        <mxCell id="dWubEJJqkw_rELNpz6dQ-380" value="" style="edgeStyle=elbowEdgeStyle;elbow=horizontal;rounded=0;fontColor=#000000;endArrow=none;endFill=0;strokeWidth=8;strokeColor=#23445D;" edge="1" parent="1" source="dWubEJJqkw_rELNpz6dQ-373">
          <mxGeometry width="100" height="100" relative="1" as="geometry">
            <mxPoint x="360" y="-320" as="sourcePoint" />
            <mxPoint x="320" y="-100" as="targetPoint" />
            <Array as="points">
              <mxPoint x="300" y="-260" />
            </Array>
          </mxGeometry>
        </mxCell>
        <mxCell id="dWubEJJqkw_rELNpz6dQ-381" value="" style="edgeStyle=elbowEdgeStyle;elbow=horizontal;rounded=0;fontColor=#000000;endArrow=none;endFill=0;strokeWidth=8;strokeColor=#23445D;" edge="1" parent="1">
          <mxGeometry width="100" height="100" relative="1" as="geometry">
            <mxPoint x="540" y="-359.99999999999955" as="sourcePoint" />
            <mxPoint x="549.9999999999995" y="-260" as="targetPoint" />
            <Array as="points">
              <mxPoint x="530" y="-310" />
            </Array>
          </mxGeometry>
        </mxCell>
        <mxCell id="dWubEJJqkw_rELNpz6dQ-382" value="" style="edgeStyle=elbowEdgeStyle;elbow=horizontal;rounded=0;fontColor=#000000;endArrow=none;endFill=0;strokeWidth=8;strokeColor=#23445D;" edge="1" parent="1" source="dWubEJJqkw_rELNpz6dQ-374">
          <mxGeometry width="100" height="100" relative="1" as="geometry">
            <mxPoint x="540" y="-359.99999999999955" as="sourcePoint" />
            <mxPoint x="550" y="-180" as="targetPoint" />
            <Array as="points">
              <mxPoint x="530" y="-270" />
            </Array>
          </mxGeometry>
        </mxCell>
        <mxCell id="dWubEJJqkw_rELNpz6dQ-383" value="" style="edgeStyle=elbowEdgeStyle;elbow=horizontal;rounded=0;fontColor=#000000;endArrow=none;endFill=0;strokeWidth=8;strokeColor=#23445D;entryX=0;entryY=0.5;entryDx=0;entryDy=0;" edge="1" parent="1" source="dWubEJJqkw_rELNpz6dQ-374" target="dWubEJJqkw_rELNpz6dQ-411">
          <mxGeometry width="100" height="100" relative="1" as="geometry">
            <mxPoint x="540" y="-359.99999999999955" as="sourcePoint" />
            <mxPoint x="550" y="60" as="targetPoint" />
            <Array as="points">
              <mxPoint x="530" y="-150" />
            </Array>
          </mxGeometry>
        </mxCell>
        <mxCell id="dWubEJJqkw_rELNpz6dQ-384" value="" style="edgeStyle=elbowEdgeStyle;elbow=horizontal;rounded=0;fontColor=#000000;endArrow=none;endFill=0;strokeWidth=8;strokeColor=#23445D;" edge="1" parent="1" source="dWubEJJqkw_rELNpz6dQ-374">
          <mxGeometry width="100" height="100" relative="1" as="geometry">
            <mxPoint x="540" y="-359.99999999999955" as="sourcePoint" />
            <mxPoint x="550" y="-20" as="targetPoint" />
            <Array as="points">
              <mxPoint x="530" y="-190" />
            </Array>
          </mxGeometry>
        </mxCell>
        <mxCell id="dWubEJJqkw_rELNpz6dQ-385" value="Brand 1" style="whiteSpace=wrap;rounded=1;fillColor=#12AAB5;strokeColor=none;shadow=1;fontColor=#FFFFFF;" vertex="1" parent="1">
          <mxGeometry x="-150" y="-389.9999999999999" width="120" height="60" as="geometry" />
        </mxCell>
        <mxCell id="dWubEJJqkw_rELNpz6dQ-386" value="Brand 2" style="whiteSpace=wrap;rounded=1;fillColor=#12AAB5;strokeColor=none;shadow=1;fontColor=#FFFFFF;" vertex="1" parent="1">
          <mxGeometry x="90" y="-389.9999999999999" width="120" height="60" as="geometry" />
        </mxCell>
        <mxCell id="dWubEJJqkw_rELNpz6dQ-387" value="Product 1" style="whiteSpace=wrap;rounded=1;fillColor=#999999;strokeColor=none;shadow=1;fontColor=#FFFFFF;fontStyle=0" vertex="1" parent="1">
          <mxGeometry x="-150" y="-289.9999999999999" width="120" height="60" as="geometry" />
        </mxCell>
        <mxCell id="dWubEJJqkw_rELNpz6dQ-388" value="Product 2" style="whiteSpace=wrap;rounded=1;fillColor=#999999;strokeColor=none;shadow=1;fontColor=#FFFFFF;fontStyle=0" vertex="1" parent="1">
          <mxGeometry x="-149.9999999999999" y="-209.9999999999999" width="120" height="60" as="geometry" />
        </mxCell>
        <mxCell id="dWubEJJqkw_rELNpz6dQ-389" value="Product 3" style="whiteSpace=wrap;rounded=1;fillColor=#999999;strokeColor=none;shadow=1;fontColor=#FFFFFF;fontStyle=0" vertex="1" parent="1">
          <mxGeometry x="-150" y="-129.9999999999999" width="120" height="60" as="geometry" />
        </mxCell>
        <mxCell id="dWubEJJqkw_rELNpz6dQ-390" value="Product 4" style="whiteSpace=wrap;rounded=1;fillColor=#999999;strokeColor=none;shadow=1;fontColor=#FFFFFF;fontStyle=0" vertex="1" parent="1">
          <mxGeometry x="-149.99999999999977" y="-49.999999999999886" width="120" height="60" as="geometry" />
        </mxCell>
        <mxCell id="dWubEJJqkw_rELNpz6dQ-391" value="" style="edgeStyle=elbowEdgeStyle;elbow=horizontal;rounded=0;fontColor=#000000;endArrow=none;endFill=0;strokeWidth=8;strokeColor=#23445D;" edge="1" parent="1" source="dWubEJJqkw_rELNpz6dQ-385" target="dWubEJJqkw_rELNpz6dQ-387">
          <mxGeometry width="100" height="100" relative="1" as="geometry">
            <mxPoint x="-210" y="-210" as="sourcePoint" />
            <mxPoint x="-110" y="-310" as="targetPoint" />
            <Array as="points">
              <mxPoint x="-170" y="-310" />
            </Array>
          </mxGeometry>
        </mxCell>
        <mxCell id="dWubEJJqkw_rELNpz6dQ-392" value="" style="edgeStyle=elbowEdgeStyle;elbow=horizontal;rounded=0;fontColor=#000000;endArrow=none;endFill=0;strokeWidth=8;strokeColor=#23445D;" edge="1" parent="1" source="dWubEJJqkw_rELNpz6dQ-385" target="dWubEJJqkw_rELNpz6dQ-388">
          <mxGeometry width="100" height="100" relative="1" as="geometry">
            <mxPoint x="-140" y="-350" as="sourcePoint" />
            <mxPoint x="-140" y="-250" as="targetPoint" />
            <Array as="points">
              <mxPoint x="-170" y="-290" />
            </Array>
          </mxGeometry>
        </mxCell>
        <mxCell id="dWubEJJqkw_rELNpz6dQ-393" value="" style="edgeStyle=elbowEdgeStyle;elbow=horizontal;rounded=0;fontColor=#000000;endArrow=none;endFill=0;strokeWidth=8;strokeColor=#23445D;" edge="1" parent="1" source="dWubEJJqkw_rELNpz6dQ-385" target="dWubEJJqkw_rELNpz6dQ-390">
          <mxGeometry width="100" height="100" relative="1" as="geometry">
            <mxPoint x="-120" y="-330" as="sourcePoint" />
            <mxPoint x="-120" y="-230" as="targetPoint" />
            <Array as="points">
              <mxPoint x="-170" y="-280" />
            </Array>
          </mxGeometry>
        </mxCell>
        <mxCell id="dWubEJJqkw_rELNpz6dQ-394" value="" style="edgeStyle=elbowEdgeStyle;elbow=horizontal;rounded=0;fontColor=#000000;endArrow=none;endFill=0;strokeWidth=8;strokeColor=#23445D;" edge="1" parent="1" source="dWubEJJqkw_rELNpz6dQ-385" target="dWubEJJqkw_rELNpz6dQ-389">
          <mxGeometry width="100" height="100" relative="1" as="geometry">
            <mxPoint x="-110" y="-320" as="sourcePoint" />
            <mxPoint x="-110" y="-220" as="targetPoint" />
            <Array as="points">
              <mxPoint x="-170" y="-260" />
            </Array>
          </mxGeometry>
        </mxCell>
        <mxCell id="dWubEJJqkw_rELNpz6dQ-395" value="" style="edgeStyle=elbowEdgeStyle;elbow=horizontal;rounded=0;fontColor=#000000;endArrow=none;endFill=0;strokeWidth=8;strokeColor=#23445D;entryX=0;entryY=0.5;entryDx=0;entryDy=0;" edge="1" parent="1" target="dWubEJJqkw_rELNpz6dQ-401">
          <mxGeometry width="100" height="100" relative="1" as="geometry">
            <mxPoint x="80" y="-359.99999999999955" as="sourcePoint" />
            <mxPoint x="89.99999999999955" y="-260" as="targetPoint" />
            <Array as="points">
              <mxPoint x="70" y="-310" />
            </Array>
          </mxGeometry>
        </mxCell>
        <mxCell id="dWubEJJqkw_rELNpz6dQ-396" value="" style="edgeStyle=elbowEdgeStyle;elbow=horizontal;rounded=0;fontColor=#000000;endArrow=none;endFill=0;strokeWidth=8;strokeColor=#23445D;" edge="1" parent="1" source="dWubEJJqkw_rELNpz6dQ-386">
          <mxGeometry width="100" height="100" relative="1" as="geometry">
            <mxPoint x="80" y="-359.99999999999955" as="sourcePoint" />
            <mxPoint x="90" y="-180" as="targetPoint" />
            <Array as="points">
              <mxPoint x="70" y="-270" />
            </Array>
          </mxGeometry>
        </mxCell>
        <mxCell id="dWubEJJqkw_rELNpz6dQ-397" value="" style="edgeStyle=elbowEdgeStyle;elbow=horizontal;rounded=0;fontColor=#000000;endArrow=none;endFill=0;strokeWidth=8;strokeColor=#23445D;" edge="1" parent="1" source="dWubEJJqkw_rELNpz6dQ-386">
          <mxGeometry width="100" height="100" relative="1" as="geometry">
            <mxPoint x="80" y="-359.99999999999955" as="sourcePoint" />
            <mxPoint x="90" y="-20" as="targetPoint" />
            <Array as="points">
              <mxPoint x="70" y="-190" />
            </Array>
          </mxGeometry>
        </mxCell>
        <mxCell id="dWubEJJqkw_rELNpz6dQ-398" value="" style="edgeStyle=elbowEdgeStyle;elbow=horizontal;rounded=0;fontColor=#000000;endArrow=none;endFill=0;strokeWidth=8;strokeColor=#23445D;" edge="1" parent="1" source="dWubEJJqkw_rELNpz6dQ-386" target="dWubEJJqkw_rELNpz6dQ-403">
          <mxGeometry width="100" height="100" relative="1" as="geometry">
            <mxPoint x="80" y="-359.99999999999955" as="sourcePoint" />
            <mxPoint x="89.99999999999955" y="-100" as="targetPoint" />
            <Array as="points">
              <mxPoint x="70" y="-230" />
            </Array>
          </mxGeometry>
        </mxCell>
        <mxCell id="dWubEJJqkw_rELNpz6dQ-399" value="" style="edgeStyle=elbowEdgeStyle;elbow=vertical;rounded=0;fontColor=#000000;endArrow=none;endFill=0;strokeWidth=8;strokeColor=#23445D;entryX=0.5;entryY=0;entryDx=0;entryDy=0;" edge="1" parent="1" target="dWubEJJqkw_rELNpz6dQ-386">
          <mxGeometry width="100" height="100" relative="1" as="geometry">
            <mxPoint x="270" y="-480" as="sourcePoint" />
            <mxPoint x="330" y="-410" as="targetPoint" />
          </mxGeometry>
        </mxCell>
        <mxCell id="dWubEJJqkw_rELNpz6dQ-400" value="" style="edgeStyle=elbowEdgeStyle;elbow=vertical;rounded=0;fontColor=#000000;endArrow=none;endFill=0;strokeWidth=8;strokeColor=#23445D;entryX=0.5;entryY=0;entryDx=0;entryDy=0;exitX=0.5;exitY=1;exitDx=0;exitDy=0;" edge="1" parent="1" target="dWubEJJqkw_rELNpz6dQ-385" source="4">
          <mxGeometry width="100" height="100" relative="1" as="geometry">
            <mxPoint x="260" y="-480" as="sourcePoint" />
            <mxPoint x="240.00000000000023" y="-380" as="targetPoint" />
          </mxGeometry>
        </mxCell>
        <mxCell id="dWubEJJqkw_rELNpz6dQ-401" value="Product 1" style="whiteSpace=wrap;rounded=1;fillColor=#999999;strokeColor=none;shadow=1;fontColor=#FFFFFF;fontStyle=0" vertex="1" parent="1">
          <mxGeometry x="90" y="-289.9999999999999" width="120" height="60" as="geometry" />
        </mxCell>
        <mxCell id="dWubEJJqkw_rELNpz6dQ-402" value="Product 2" style="whiteSpace=wrap;rounded=1;fillColor=#999999;strokeColor=none;shadow=1;fontColor=#FFFFFF;fontStyle=0" vertex="1" parent="1">
          <mxGeometry x="90.00000000000011" y="-209.9999999999999" width="120" height="60" as="geometry" />
        </mxCell>
        <mxCell id="dWubEJJqkw_rELNpz6dQ-403" value="Product 3" style="whiteSpace=wrap;rounded=1;fillColor=#999999;strokeColor=none;shadow=1;fontColor=#FFFFFF;fontStyle=0" vertex="1" parent="1">
          <mxGeometry x="90" y="-129.9999999999999" width="120" height="60" as="geometry" />
        </mxCell>
        <mxCell id="dWubEJJqkw_rELNpz6dQ-404" value="Product 4" style="whiteSpace=wrap;rounded=1;fillColor=#999999;strokeColor=none;shadow=1;fontColor=#FFFFFF;fontStyle=0" vertex="1" parent="1">
          <mxGeometry x="90.00000000000023" y="-49.999999999999886" width="120" height="60" as="geometry" />
        </mxCell>
        <mxCell id="dWubEJJqkw_rELNpz6dQ-405" value="Product 1" style="whiteSpace=wrap;rounded=1;fillColor=#999999;strokeColor=none;shadow=1;fontColor=#FFFFFF;fontStyle=0" vertex="1" parent="1">
          <mxGeometry x="320" y="-289.9999999999999" width="120" height="60" as="geometry" />
        </mxCell>
        <mxCell id="dWubEJJqkw_rELNpz6dQ-406" value="Product 2" style="whiteSpace=wrap;rounded=1;fillColor=#999999;strokeColor=none;shadow=1;fontColor=#FFFFFF;fontStyle=0" vertex="1" parent="1">
          <mxGeometry x="320" y="-209.9999999999999" width="120" height="60" as="geometry" />
        </mxCell>
        <mxCell id="dWubEJJqkw_rELNpz6dQ-407" value="Product 3" style="whiteSpace=wrap;rounded=1;fillColor=#999999;strokeColor=none;shadow=1;fontColor=#FFFFFF;fontStyle=0" vertex="1" parent="1">
          <mxGeometry x="320" y="-129.9999999999999" width="120" height="60" as="geometry" />
        </mxCell>
        <mxCell id="dWubEJJqkw_rELNpz6dQ-408" value="Product 4" style="whiteSpace=wrap;rounded=1;fillColor=#999999;strokeColor=none;shadow=1;fontColor=#FFFFFF;fontStyle=0" vertex="1" parent="1">
          <mxGeometry x="320.0000000000002" y="-49.999999999999886" width="120" height="60" as="geometry" />
        </mxCell>
        <mxCell id="dWubEJJqkw_rELNpz6dQ-409" value="Product 1" style="whiteSpace=wrap;rounded=1;fillColor=#999999;strokeColor=none;shadow=1;fontColor=#FFFFFF;fontStyle=0" vertex="1" parent="1">
          <mxGeometry x="550" y="-289.9999999999999" width="120" height="60" as="geometry" />
        </mxCell>
        <mxCell id="dWubEJJqkw_rELNpz6dQ-410" value="Product 2" style="whiteSpace=wrap;rounded=1;fillColor=#999999;strokeColor=none;shadow=1;fontColor=#FFFFFF;fontStyle=0" vertex="1" parent="1">
          <mxGeometry x="550" y="-209.9999999999999" width="120" height="60" as="geometry" />
        </mxCell>
        <mxCell id="dWubEJJqkw_rELNpz6dQ-411" value="Product 3" style="whiteSpace=wrap;rounded=1;fillColor=#999999;strokeColor=none;shadow=1;fontColor=#FFFFFF;fontStyle=0" vertex="1" parent="1">
          <mxGeometry x="550" y="-129.9999999999999" width="120" height="60" as="geometry" />
        </mxCell>
        <mxCell id="dWubEJJqkw_rELNpz6dQ-412" value="Product 4" style="whiteSpace=wrap;rounded=1;fillColor=#999999;strokeColor=none;shadow=1;fontColor=#FFFFFF;fontStyle=0" vertex="1" parent="1">
          <mxGeometry x="550.0000000000002" y="-49.999999999999886" width="120" height="60" as="geometry" />
        </mxCell>
        <mxCell id="dWubEJJqkw_rELNpz6dQ-413" value="" style="edgeStyle=elbowEdgeStyle;elbow=horizontal;rounded=0;fontColor=#000000;endArrow=none;endFill=0;strokeWidth=8;strokeColor=#23445D;exitX=1;exitY=0.5;exitDx=0;exitDy=0;entryX=1;entryY=0.5;entryDx=0;entryDy=0;" edge="1" parent="1" source="dWubEJJqkw_rELNpz6dQ-387" target="dWubEJJqkw_rELNpz6dQ-388">
          <mxGeometry width="100" height="100" relative="1" as="geometry">
            <mxPoint x="-140" y="-350" as="sourcePoint" />
            <mxPoint x="-140" y="-90" as="targetPoint" />
            <Array as="points">
              <mxPoint x="30" y="-220" />
            </Array>
          </mxGeometry>
        </mxCell>
        <mxCell id="dWubEJJqkw_rELNpz6dQ-414" value="" style="edgeStyle=elbowEdgeStyle;elbow=horizontal;rounded=0;fontColor=#000000;endArrow=none;endFill=0;strokeWidth=8;strokeColor=#23445D;exitX=1;exitY=0.5;exitDx=0;exitDy=0;" edge="1" parent="1" source="dWubEJJqkw_rELNpz6dQ-389">
          <mxGeometry width="100" height="100" relative="1" as="geometry">
            <mxPoint x="-20" y="-250" as="sourcePoint" />
            <mxPoint x="30" y="-180" as="targetPoint" />
            <Array as="points">
              <mxPoint x="30" y="-140" />
            </Array>
          </mxGeometry>
        </mxCell>
        <mxCell id="dWubEJJqkw_rELNpz6dQ-415" value="" style="edgeStyle=elbowEdgeStyle;elbow=horizontal;rounded=0;fontColor=#000000;endArrow=none;endFill=0;strokeWidth=8;strokeColor=#23445D;exitX=1;exitY=0.5;exitDx=0;exitDy=0;" edge="1" parent="1" source="dWubEJJqkw_rELNpz6dQ-390">
          <mxGeometry width="100" height="100" relative="1" as="geometry">
            <mxPoint x="-20" y="-20" as="sourcePoint" />
            <mxPoint x="30" y="-100" as="targetPoint" />
            <Array as="points">
              <mxPoint x="30" y="-50" />
            </Array>
          </mxGeometry>
        </mxCell>
        <mxCell id="dWubEJJqkw_rELNpz6dQ-418" value="" style="edgeStyle=elbowEdgeStyle;elbow=horizontal;rounded=0;fontColor=#000000;endArrow=none;endFill=0;strokeWidth=8;strokeColor=#23445D;exitX=1;exitY=0.5;exitDx=0;exitDy=0;entryX=1;entryY=0.5;entryDx=0;entryDy=0;" edge="1" parent="1">
          <mxGeometry width="100" height="100" relative="1" as="geometry">
            <mxPoint x="210" y="-260" as="sourcePoint" />
            <mxPoint x="210" y="-180" as="targetPoint" />
            <Array as="points">
              <mxPoint x="270" y="-220" />
            </Array>
          </mxGeometry>
        </mxCell>
        <mxCell id="dWubEJJqkw_rELNpz6dQ-419" value="" style="edgeStyle=elbowEdgeStyle;elbow=horizontal;rounded=0;fontColor=#000000;endArrow=none;endFill=0;strokeWidth=8;strokeColor=#23445D;exitX=1;exitY=0.5;exitDx=0;exitDy=0;" edge="1" parent="1">
          <mxGeometry width="100" height="100" relative="1" as="geometry">
            <mxPoint x="210" y="-100" as="sourcePoint" />
            <mxPoint x="270" y="-180" as="targetPoint" />
            <Array as="points">
              <mxPoint x="270" y="-140" />
            </Array>
          </mxGeometry>
        </mxCell>
        <mxCell id="dWubEJJqkw_rELNpz6dQ-420" value="" style="edgeStyle=elbowEdgeStyle;elbow=horizontal;rounded=0;fontColor=#000000;endArrow=none;endFill=0;strokeWidth=8;strokeColor=#23445D;exitX=1;exitY=0.5;exitDx=0;exitDy=0;" edge="1" parent="1">
          <mxGeometry width="100" height="100" relative="1" as="geometry">
            <mxPoint x="210" y="-20" as="sourcePoint" />
            <mxPoint x="270" y="-100" as="targetPoint" />
            <Array as="points">
              <mxPoint x="270" y="-50" />
            </Array>
          </mxGeometry>
        </mxCell>
        <mxCell id="dWubEJJqkw_rELNpz6dQ-421" value="" style="edgeStyle=elbowEdgeStyle;elbow=horizontal;rounded=0;fontColor=#000000;endArrow=none;endFill=0;strokeWidth=8;strokeColor=#23445D;exitX=1;exitY=0.5;exitDx=0;exitDy=0;entryX=1;entryY=0.5;entryDx=0;entryDy=0;" edge="1" parent="1">
          <mxGeometry width="100" height="100" relative="1" as="geometry">
            <mxPoint x="440" y="-260" as="sourcePoint" />
            <mxPoint x="440" y="-180" as="targetPoint" />
            <Array as="points">
              <mxPoint x="500" y="-220" />
            </Array>
          </mxGeometry>
        </mxCell>
        <mxCell id="dWubEJJqkw_rELNpz6dQ-422" value="" style="edgeStyle=elbowEdgeStyle;elbow=horizontal;rounded=0;fontColor=#000000;endArrow=none;endFill=0;strokeWidth=8;strokeColor=#23445D;exitX=1;exitY=0.5;exitDx=0;exitDy=0;" edge="1" parent="1">
          <mxGeometry width="100" height="100" relative="1" as="geometry">
            <mxPoint x="440" y="-100" as="sourcePoint" />
            <mxPoint x="500" y="-180" as="targetPoint" />
            <Array as="points">
              <mxPoint x="500" y="-140" />
            </Array>
          </mxGeometry>
        </mxCell>
        <mxCell id="dWubEJJqkw_rELNpz6dQ-423" value="" style="edgeStyle=elbowEdgeStyle;elbow=horizontal;rounded=0;fontColor=#000000;endArrow=none;endFill=0;strokeWidth=8;strokeColor=#23445D;exitX=1;exitY=0.5;exitDx=0;exitDy=0;" edge="1" parent="1">
          <mxGeometry width="100" height="100" relative="1" as="geometry">
            <mxPoint x="440" y="-20" as="sourcePoint" />
            <mxPoint x="500" y="-100" as="targetPoint" />
            <Array as="points">
              <mxPoint x="500" y="-50" />
            </Array>
          </mxGeometry>
        </mxCell>
        <mxCell id="dWubEJJqkw_rELNpz6dQ-424" value="" style="edgeStyle=elbowEdgeStyle;elbow=horizontal;rounded=0;fontColor=#000000;endArrow=none;endFill=0;strokeWidth=8;strokeColor=#23445D;exitX=1;exitY=0.5;exitDx=0;exitDy=0;entryX=1;entryY=0.5;entryDx=0;entryDy=0;" edge="1" parent="1">
          <mxGeometry width="100" height="100" relative="1" as="geometry">
            <mxPoint x="670" y="-260" as="sourcePoint" />
            <mxPoint x="670" y="-180" as="targetPoint" />
            <Array as="points">
              <mxPoint x="730" y="-220" />
            </Array>
          </mxGeometry>
        </mxCell>
        <mxCell id="dWubEJJqkw_rELNpz6dQ-425" value="" style="edgeStyle=elbowEdgeStyle;elbow=horizontal;rounded=0;fontColor=#000000;endArrow=none;endFill=0;strokeWidth=8;strokeColor=#23445D;exitX=1;exitY=0.5;exitDx=0;exitDy=0;" edge="1" parent="1">
          <mxGeometry width="100" height="100" relative="1" as="geometry">
            <mxPoint x="670" y="-100" as="sourcePoint" />
            <mxPoint x="730" y="-180" as="targetPoint" />
            <Array as="points">
              <mxPoint x="730" y="-140" />
            </Array>
          </mxGeometry>
        </mxCell>
        <mxCell id="dWubEJJqkw_rELNpz6dQ-426" value="" style="edgeStyle=elbowEdgeStyle;elbow=horizontal;rounded=0;fontColor=#000000;endArrow=none;endFill=0;strokeWidth=8;strokeColor=#23445D;exitX=1;exitY=0.5;exitDx=0;exitDy=0;" edge="1" parent="1">
          <mxGeometry width="100" height="100" relative="1" as="geometry">
            <mxPoint x="670" y="-20" as="sourcePoint" />
            <mxPoint x="730" y="-100" as="targetPoint" />
            <Array as="points">
              <mxPoint x="730" y="-50" />
            </Array>
          </mxGeometry>
        </mxCell>
        <mxCell id="dWubEJJqkw_rELNpz6dQ-430" value="" style="edgeStyle=elbowEdgeStyle;elbow=vertical;rounded=0;fontColor=#000000;endArrow=none;endFill=0;strokeWidth=8;strokeColor=#23445D;entryX=0.5;entryY=0;entryDx=0;entryDy=0;" edge="1" parent="1" target="4">
          <mxGeometry width="100" height="100" relative="1" as="geometry">
            <mxPoint x="270" y="-560" as="sourcePoint" />
            <mxPoint x="-720" y="-530" as="targetPoint" />
            <Array as="points">
              <mxPoint x="260" y="-550" />
            </Array>
          </mxGeometry>
        </mxCell>
        <mxCell id="dWubEJJqkw_rELNpz6dQ-433" value="Tablets" style="whiteSpace=wrap;rounded=1;fillColor=#F2931E;strokeColor=none;shadow=1;fontColor=#FFFFFF;fontStyle=1;fontSize=14" vertex="1" parent="1">
          <mxGeometry x="1190" y="-540.0000000000002" width="140" height="60" as="geometry" />
        </mxCell>
        <mxCell id="dWubEJJqkw_rELNpz6dQ-434" value="Brand 3" style="whiteSpace=wrap;rounded=1;fillColor=#12AAB5;strokeColor=none;shadow=1;fontColor=#FFFFFF;" vertex="1" parent="1">
          <mxGeometry x="1310" y="-389.9999999999999" width="120" height="60" as="geometry" />
        </mxCell>
        <mxCell id="dWubEJJqkw_rELNpz6dQ-435" value="Brand 4" style="whiteSpace=wrap;rounded=1;fillColor=#12AAB5;strokeColor=none;shadow=1;fontColor=#FFFFFF;" vertex="1" parent="1">
          <mxGeometry x="1540" y="-389.9999999999999" width="120" height="60" as="geometry" />
        </mxCell>
        <mxCell id="dWubEJJqkw_rELNpz6dQ-436" value="" style="edgeStyle=elbowEdgeStyle;elbow=vertical;rounded=0;fontColor=#000000;endArrow=none;endFill=0;strokeWidth=8;strokeColor=#23445D;exitX=0.5;exitY=1;exitDx=0;exitDy=0;" edge="1" parent="1" source="dWubEJJqkw_rELNpz6dQ-433" target="dWubEJJqkw_rELNpz6dQ-434">
          <mxGeometry width="100" height="100" relative="1" as="geometry">
            <mxPoint x="1250" y="-480" as="sourcePoint" />
            <mxPoint x="1390" y="-500" as="targetPoint" />
          </mxGeometry>
        </mxCell>
        <mxCell id="dWubEJJqkw_rELNpz6dQ-437" value="" style="edgeStyle=elbowEdgeStyle;elbow=vertical;rounded=0;fontColor=#000000;endArrow=none;endFill=0;strokeWidth=8;strokeColor=#23445D;" edge="1" parent="1" target="dWubEJJqkw_rELNpz6dQ-435">
          <mxGeometry width="100" height="100" relative="1" as="geometry">
            <mxPoint x="1260" y="-480" as="sourcePoint" />
            <mxPoint x="1730" y="-500" as="targetPoint" />
          </mxGeometry>
        </mxCell>
        <mxCell id="dWubEJJqkw_rELNpz6dQ-438" value="" style="edgeStyle=elbowEdgeStyle;elbow=horizontal;rounded=0;fontColor=#000000;endArrow=none;endFill=0;strokeWidth=8;strokeColor=#23445D;" edge="1" parent="1" source="dWubEJJqkw_rELNpz6dQ-434">
          <mxGeometry width="100" height="100" relative="1" as="geometry">
            <mxPoint x="1250" y="-210" as="sourcePoint" />
            <mxPoint x="1310" y="-260.00000000000045" as="targetPoint" />
            <Array as="points">
              <mxPoint x="1290" y="-310" />
            </Array>
          </mxGeometry>
        </mxCell>
        <mxCell id="dWubEJJqkw_rELNpz6dQ-439" value="" style="edgeStyle=elbowEdgeStyle;elbow=horizontal;rounded=0;fontColor=#000000;endArrow=none;endFill=0;strokeWidth=8;strokeColor=#23445D;" edge="1" parent="1" source="dWubEJJqkw_rELNpz6dQ-434">
          <mxGeometry width="100" height="100" relative="1" as="geometry">
            <mxPoint x="1320" y="-350" as="sourcePoint" />
            <mxPoint x="1310" y="-180.00000000000045" as="targetPoint" />
            <Array as="points">
              <mxPoint x="1290" y="-290" />
            </Array>
          </mxGeometry>
        </mxCell>
        <mxCell id="dWubEJJqkw_rELNpz6dQ-440" value="" style="edgeStyle=elbowEdgeStyle;elbow=horizontal;rounded=0;fontColor=#000000;endArrow=none;endFill=0;strokeWidth=8;strokeColor=#23445D;" edge="1" parent="1" source="dWubEJJqkw_rELNpz6dQ-434">
          <mxGeometry width="100" height="100" relative="1" as="geometry">
            <mxPoint x="1340" y="-330" as="sourcePoint" />
            <mxPoint x="1310" y="-20.000000000000455" as="targetPoint" />
            <Array as="points">
              <mxPoint x="1290" y="-280" />
            </Array>
          </mxGeometry>
        </mxCell>
        <mxCell id="dWubEJJqkw_rELNpz6dQ-441" value="" style="edgeStyle=elbowEdgeStyle;elbow=horizontal;rounded=0;fontColor=#000000;endArrow=none;endFill=0;strokeWidth=8;strokeColor=#23445D;" edge="1" parent="1" source="dWubEJJqkw_rELNpz6dQ-434">
          <mxGeometry width="100" height="100" relative="1" as="geometry">
            <mxPoint x="1350" y="-320" as="sourcePoint" />
            <mxPoint x="1310" y="-100.00000000000045" as="targetPoint" />
            <Array as="points">
              <mxPoint x="1290" y="-260" />
            </Array>
          </mxGeometry>
        </mxCell>
        <mxCell id="dWubEJJqkw_rELNpz6dQ-442" value="" style="edgeStyle=elbowEdgeStyle;elbow=horizontal;rounded=0;fontColor=#000000;endArrow=none;endFill=0;strokeWidth=8;strokeColor=#23445D;" edge="1" parent="1">
          <mxGeometry width="100" height="100" relative="1" as="geometry">
            <mxPoint x="1530" y="-359.99999999999955" as="sourcePoint" />
            <mxPoint x="1540" y="-260.00000000000045" as="targetPoint" />
            <Array as="points">
              <mxPoint x="1520" y="-310" />
            </Array>
          </mxGeometry>
        </mxCell>
        <mxCell id="dWubEJJqkw_rELNpz6dQ-443" value="" style="edgeStyle=elbowEdgeStyle;elbow=horizontal;rounded=0;fontColor=#000000;endArrow=none;endFill=0;strokeWidth=8;strokeColor=#23445D;" edge="1" parent="1" source="dWubEJJqkw_rELNpz6dQ-435">
          <mxGeometry width="100" height="100" relative="1" as="geometry">
            <mxPoint x="1530" y="-359.99999999999955" as="sourcePoint" />
            <mxPoint x="1540" y="-180.00000000000045" as="targetPoint" />
            <Array as="points">
              <mxPoint x="1520" y="-270" />
            </Array>
          </mxGeometry>
        </mxCell>
        <mxCell id="dWubEJJqkw_rELNpz6dQ-444" value="" style="edgeStyle=elbowEdgeStyle;elbow=horizontal;rounded=0;fontColor=#000000;endArrow=none;endFill=0;strokeWidth=8;strokeColor=#23445D;entryX=0;entryY=0.5;entryDx=0;entryDy=0;" edge="1" parent="1" source="dWubEJJqkw_rELNpz6dQ-435" target="dWubEJJqkw_rELNpz6dQ-472">
          <mxGeometry width="100" height="100" relative="1" as="geometry">
            <mxPoint x="1530" y="-359.99999999999955" as="sourcePoint" />
            <mxPoint x="1540" y="60" as="targetPoint" />
            <Array as="points">
              <mxPoint x="1520" y="-150" />
            </Array>
          </mxGeometry>
        </mxCell>
        <mxCell id="dWubEJJqkw_rELNpz6dQ-445" value="" style="edgeStyle=elbowEdgeStyle;elbow=horizontal;rounded=0;fontColor=#000000;endArrow=none;endFill=0;strokeWidth=8;strokeColor=#23445D;" edge="1" parent="1" source="dWubEJJqkw_rELNpz6dQ-435">
          <mxGeometry width="100" height="100" relative="1" as="geometry">
            <mxPoint x="1530" y="-359.99999999999955" as="sourcePoint" />
            <mxPoint x="1540" y="-20.000000000000455" as="targetPoint" />
            <Array as="points">
              <mxPoint x="1520" y="-190" />
            </Array>
          </mxGeometry>
        </mxCell>
        <mxCell id="dWubEJJqkw_rELNpz6dQ-446" value="Brand 1" style="whiteSpace=wrap;rounded=1;fillColor=#12AAB5;strokeColor=none;shadow=1;fontColor=#FFFFFF;" vertex="1" parent="1">
          <mxGeometry x="840" y="-389.9999999999999" width="120" height="60" as="geometry" />
        </mxCell>
        <mxCell id="dWubEJJqkw_rELNpz6dQ-447" value="Brand 2" style="whiteSpace=wrap;rounded=1;fillColor=#12AAB5;strokeColor=none;shadow=1;fontColor=#FFFFFF;" vertex="1" parent="1">
          <mxGeometry x="1080" y="-389.9999999999999" width="120" height="60" as="geometry" />
        </mxCell>
        <mxCell id="dWubEJJqkw_rELNpz6dQ-448" value="Product 1" style="whiteSpace=wrap;rounded=1;fillColor=#999999;strokeColor=none;shadow=1;fontColor=#FFFFFF;fontStyle=0" vertex="1" parent="1">
          <mxGeometry x="840" y="-289.9999999999999" width="120" height="60" as="geometry" />
        </mxCell>
        <mxCell id="dWubEJJqkw_rELNpz6dQ-449" value="Product 2" style="whiteSpace=wrap;rounded=1;fillColor=#999999;strokeColor=none;shadow=1;fontColor=#FFFFFF;fontStyle=0" vertex="1" parent="1">
          <mxGeometry x="840" y="-209.9999999999999" width="120" height="60" as="geometry" />
        </mxCell>
        <mxCell id="dWubEJJqkw_rELNpz6dQ-450" value="Product 3" style="whiteSpace=wrap;rounded=1;fillColor=#999999;strokeColor=none;shadow=1;fontColor=#FFFFFF;fontStyle=0" vertex="1" parent="1">
          <mxGeometry x="840" y="-129.9999999999999" width="120" height="60" as="geometry" />
        </mxCell>
        <mxCell id="dWubEJJqkw_rELNpz6dQ-451" value="Product 4" style="whiteSpace=wrap;rounded=1;fillColor=#999999;strokeColor=none;shadow=1;fontColor=#FFFFFF;fontStyle=0" vertex="1" parent="1">
          <mxGeometry x="840.0000000000002" y="-49.999999999999886" width="120" height="60" as="geometry" />
        </mxCell>
        <mxCell id="dWubEJJqkw_rELNpz6dQ-452" value="" style="edgeStyle=elbowEdgeStyle;elbow=horizontal;rounded=0;fontColor=#000000;endArrow=none;endFill=0;strokeWidth=8;strokeColor=#23445D;" edge="1" parent="1" source="dWubEJJqkw_rELNpz6dQ-446" target="dWubEJJqkw_rELNpz6dQ-448">
          <mxGeometry width="100" height="100" relative="1" as="geometry">
            <mxPoint x="780" y="-210" as="sourcePoint" />
            <mxPoint x="880" y="-310" as="targetPoint" />
            <Array as="points">
              <mxPoint x="820" y="-310" />
            </Array>
          </mxGeometry>
        </mxCell>
        <mxCell id="dWubEJJqkw_rELNpz6dQ-453" value="" style="edgeStyle=elbowEdgeStyle;elbow=horizontal;rounded=0;fontColor=#000000;endArrow=none;endFill=0;strokeWidth=8;strokeColor=#23445D;" edge="1" parent="1" source="dWubEJJqkw_rELNpz6dQ-446" target="dWubEJJqkw_rELNpz6dQ-449">
          <mxGeometry width="100" height="100" relative="1" as="geometry">
            <mxPoint x="850" y="-350" as="sourcePoint" />
            <mxPoint x="850" y="-250" as="targetPoint" />
            <Array as="points">
              <mxPoint x="820" y="-290" />
            </Array>
          </mxGeometry>
        </mxCell>
        <mxCell id="dWubEJJqkw_rELNpz6dQ-454" value="" style="edgeStyle=elbowEdgeStyle;elbow=horizontal;rounded=0;fontColor=#000000;endArrow=none;endFill=0;strokeWidth=8;strokeColor=#23445D;" edge="1" parent="1" source="dWubEJJqkw_rELNpz6dQ-446" target="dWubEJJqkw_rELNpz6dQ-451">
          <mxGeometry width="100" height="100" relative="1" as="geometry">
            <mxPoint x="870" y="-330" as="sourcePoint" />
            <mxPoint x="870" y="-230" as="targetPoint" />
            <Array as="points">
              <mxPoint x="820" y="-280" />
            </Array>
          </mxGeometry>
        </mxCell>
        <mxCell id="dWubEJJqkw_rELNpz6dQ-455" value="" style="edgeStyle=elbowEdgeStyle;elbow=horizontal;rounded=0;fontColor=#000000;endArrow=none;endFill=0;strokeWidth=8;strokeColor=#23445D;" edge="1" parent="1" source="dWubEJJqkw_rELNpz6dQ-446" target="dWubEJJqkw_rELNpz6dQ-450">
          <mxGeometry width="100" height="100" relative="1" as="geometry">
            <mxPoint x="880" y="-320" as="sourcePoint" />
            <mxPoint x="880" y="-220" as="targetPoint" />
            <Array as="points">
              <mxPoint x="820" y="-260" />
            </Array>
          </mxGeometry>
        </mxCell>
        <mxCell id="dWubEJJqkw_rELNpz6dQ-456" value="" style="edgeStyle=elbowEdgeStyle;elbow=horizontal;rounded=0;fontColor=#000000;endArrow=none;endFill=0;strokeWidth=8;strokeColor=#23445D;entryX=0;entryY=0.5;entryDx=0;entryDy=0;" edge="1" parent="1" target="dWubEJJqkw_rELNpz6dQ-462">
          <mxGeometry width="100" height="100" relative="1" as="geometry">
            <mxPoint x="1070" y="-359.99999999999955" as="sourcePoint" />
            <mxPoint x="1079.9999999999995" y="-260" as="targetPoint" />
            <Array as="points">
              <mxPoint x="1060" y="-310" />
            </Array>
          </mxGeometry>
        </mxCell>
        <mxCell id="dWubEJJqkw_rELNpz6dQ-457" value="" style="edgeStyle=elbowEdgeStyle;elbow=horizontal;rounded=0;fontColor=#000000;endArrow=none;endFill=0;strokeWidth=8;strokeColor=#23445D;" edge="1" parent="1" source="dWubEJJqkw_rELNpz6dQ-447">
          <mxGeometry width="100" height="100" relative="1" as="geometry">
            <mxPoint x="1070" y="-359.99999999999955" as="sourcePoint" />
            <mxPoint x="1080" y="-180.00000000000045" as="targetPoint" />
            <Array as="points">
              <mxPoint x="1060" y="-270" />
            </Array>
          </mxGeometry>
        </mxCell>
        <mxCell id="dWubEJJqkw_rELNpz6dQ-458" value="" style="edgeStyle=elbowEdgeStyle;elbow=horizontal;rounded=0;fontColor=#000000;endArrow=none;endFill=0;strokeWidth=8;strokeColor=#23445D;" edge="1" parent="1" source="dWubEJJqkw_rELNpz6dQ-447">
          <mxGeometry width="100" height="100" relative="1" as="geometry">
            <mxPoint x="1070" y="-359.99999999999955" as="sourcePoint" />
            <mxPoint x="1080" y="-20.000000000000455" as="targetPoint" />
            <Array as="points">
              <mxPoint x="1060" y="-190" />
            </Array>
          </mxGeometry>
        </mxCell>
        <mxCell id="dWubEJJqkw_rELNpz6dQ-459" value="" style="edgeStyle=elbowEdgeStyle;elbow=horizontal;rounded=0;fontColor=#000000;endArrow=none;endFill=0;strokeWidth=8;strokeColor=#23445D;" edge="1" parent="1" source="dWubEJJqkw_rELNpz6dQ-447" target="dWubEJJqkw_rELNpz6dQ-464">
          <mxGeometry width="100" height="100" relative="1" as="geometry">
            <mxPoint x="1070" y="-359.99999999999955" as="sourcePoint" />
            <mxPoint x="1079.9999999999995" y="-100" as="targetPoint" />
            <Array as="points">
              <mxPoint x="1060" y="-230" />
            </Array>
          </mxGeometry>
        </mxCell>
        <mxCell id="dWubEJJqkw_rELNpz6dQ-460" value="" style="edgeStyle=elbowEdgeStyle;elbow=vertical;rounded=0;fontColor=#000000;endArrow=none;endFill=0;strokeWidth=8;strokeColor=#23445D;entryX=0.5;entryY=0;entryDx=0;entryDy=0;" edge="1" parent="1" target="dWubEJJqkw_rELNpz6dQ-447">
          <mxGeometry width="100" height="100" relative="1" as="geometry">
            <mxPoint x="1260" y="-480" as="sourcePoint" />
            <mxPoint x="1320" y="-410" as="targetPoint" />
          </mxGeometry>
        </mxCell>
        <mxCell id="dWubEJJqkw_rELNpz6dQ-461" value="" style="edgeStyle=elbowEdgeStyle;elbow=vertical;rounded=0;fontColor=#000000;endArrow=none;endFill=0;strokeWidth=8;strokeColor=#23445D;entryX=0.5;entryY=0;entryDx=0;entryDy=0;exitX=0.5;exitY=1;exitDx=0;exitDy=0;" edge="1" parent="1" source="dWubEJJqkw_rELNpz6dQ-433" target="dWubEJJqkw_rELNpz6dQ-446">
          <mxGeometry width="100" height="100" relative="1" as="geometry">
            <mxPoint x="1250" y="-480" as="sourcePoint" />
            <mxPoint x="1230.0000000000002" y="-380" as="targetPoint" />
          </mxGeometry>
        </mxCell>
        <mxCell id="dWubEJJqkw_rELNpz6dQ-462" value="Product 1" style="whiteSpace=wrap;rounded=1;fillColor=#999999;strokeColor=none;shadow=1;fontColor=#FFFFFF;fontStyle=0" vertex="1" parent="1">
          <mxGeometry x="1080" y="-289.9999999999999" width="120" height="60" as="geometry" />
        </mxCell>
        <mxCell id="dWubEJJqkw_rELNpz6dQ-463" value="Product 2" style="whiteSpace=wrap;rounded=1;fillColor=#999999;strokeColor=none;shadow=1;fontColor=#FFFFFF;fontStyle=0" vertex="1" parent="1">
          <mxGeometry x="1080" y="-209.9999999999999" width="120" height="60" as="geometry" />
        </mxCell>
        <mxCell id="dWubEJJqkw_rELNpz6dQ-464" value="Product 3" style="whiteSpace=wrap;rounded=1;fillColor=#999999;strokeColor=none;shadow=1;fontColor=#FFFFFF;fontStyle=0" vertex="1" parent="1">
          <mxGeometry x="1080" y="-129.9999999999999" width="120" height="60" as="geometry" />
        </mxCell>
        <mxCell id="dWubEJJqkw_rELNpz6dQ-465" value="Product 4" style="whiteSpace=wrap;rounded=1;fillColor=#999999;strokeColor=none;shadow=1;fontColor=#FFFFFF;fontStyle=0" vertex="1" parent="1">
          <mxGeometry x="1080.0000000000002" y="-49.999999999999886" width="120" height="60" as="geometry" />
        </mxCell>
        <mxCell id="dWubEJJqkw_rELNpz6dQ-466" value="Product 1" style="whiteSpace=wrap;rounded=1;fillColor=#999999;strokeColor=none;shadow=1;fontColor=#FFFFFF;fontStyle=0" vertex="1" parent="1">
          <mxGeometry x="1310" y="-289.9999999999999" width="120" height="60" as="geometry" />
        </mxCell>
        <mxCell id="dWubEJJqkw_rELNpz6dQ-467" value="Product 2" style="whiteSpace=wrap;rounded=1;fillColor=#999999;strokeColor=none;shadow=1;fontColor=#FFFFFF;fontStyle=0" vertex="1" parent="1">
          <mxGeometry x="1310" y="-209.9999999999999" width="120" height="60" as="geometry" />
        </mxCell>
        <mxCell id="dWubEJJqkw_rELNpz6dQ-468" value="Product 3" style="whiteSpace=wrap;rounded=1;fillColor=#999999;strokeColor=none;shadow=1;fontColor=#FFFFFF;fontStyle=0" vertex="1" parent="1">
          <mxGeometry x="1310" y="-129.9999999999999" width="120" height="60" as="geometry" />
        </mxCell>
        <mxCell id="dWubEJJqkw_rELNpz6dQ-469" value="Product 4" style="whiteSpace=wrap;rounded=1;fillColor=#999999;strokeColor=none;shadow=1;fontColor=#FFFFFF;fontStyle=0" vertex="1" parent="1">
          <mxGeometry x="1310.0000000000002" y="-49.999999999999886" width="120" height="60" as="geometry" />
        </mxCell>
        <mxCell id="dWubEJJqkw_rELNpz6dQ-470" value="Product 1" style="whiteSpace=wrap;rounded=1;fillColor=#999999;strokeColor=none;shadow=1;fontColor=#FFFFFF;fontStyle=0" vertex="1" parent="1">
          <mxGeometry x="1540" y="-289.9999999999999" width="120" height="60" as="geometry" />
        </mxCell>
        <mxCell id="dWubEJJqkw_rELNpz6dQ-471" value="Product 2" style="whiteSpace=wrap;rounded=1;fillColor=#999999;strokeColor=none;shadow=1;fontColor=#FFFFFF;fontStyle=0" vertex="1" parent="1">
          <mxGeometry x="1540" y="-209.9999999999999" width="120" height="60" as="geometry" />
        </mxCell>
        <mxCell id="dWubEJJqkw_rELNpz6dQ-472" value="Product 3" style="whiteSpace=wrap;rounded=1;fillColor=#999999;strokeColor=none;shadow=1;fontColor=#FFFFFF;fontStyle=0" vertex="1" parent="1">
          <mxGeometry x="1540" y="-129.9999999999999" width="120" height="60" as="geometry" />
        </mxCell>
        <mxCell id="dWubEJJqkw_rELNpz6dQ-473" value="Product 4" style="whiteSpace=wrap;rounded=1;fillColor=#999999;strokeColor=none;shadow=1;fontColor=#FFFFFF;fontStyle=0" vertex="1" parent="1">
          <mxGeometry x="1540" y="-49.999999999999886" width="120" height="60" as="geometry" />
        </mxCell>
        <mxCell id="dWubEJJqkw_rELNpz6dQ-474" value="" style="edgeStyle=elbowEdgeStyle;elbow=horizontal;rounded=0;fontColor=#000000;endArrow=none;endFill=0;strokeWidth=8;strokeColor=#23445D;exitX=1;exitY=0.5;exitDx=0;exitDy=0;entryX=1;entryY=0.5;entryDx=0;entryDy=0;" edge="1" parent="1" source="dWubEJJqkw_rELNpz6dQ-448" target="dWubEJJqkw_rELNpz6dQ-449">
          <mxGeometry width="100" height="100" relative="1" as="geometry">
            <mxPoint x="850" y="-350" as="sourcePoint" />
            <mxPoint x="850" y="-90" as="targetPoint" />
            <Array as="points">
              <mxPoint x="1020" y="-220" />
            </Array>
          </mxGeometry>
        </mxCell>
        <mxCell id="dWubEJJqkw_rELNpz6dQ-475" value="" style="edgeStyle=elbowEdgeStyle;elbow=horizontal;rounded=0;fontColor=#000000;endArrow=none;endFill=0;strokeWidth=8;strokeColor=#23445D;exitX=1;exitY=0.5;exitDx=0;exitDy=0;" edge="1" parent="1" source="dWubEJJqkw_rELNpz6dQ-450">
          <mxGeometry width="100" height="100" relative="1" as="geometry">
            <mxPoint x="970" y="-250" as="sourcePoint" />
            <mxPoint x="1020" y="-180.00000000000045" as="targetPoint" />
            <Array as="points">
              <mxPoint x="1020" y="-140" />
            </Array>
          </mxGeometry>
        </mxCell>
        <mxCell id="dWubEJJqkw_rELNpz6dQ-476" value="" style="edgeStyle=elbowEdgeStyle;elbow=horizontal;rounded=0;fontColor=#000000;endArrow=none;endFill=0;strokeWidth=8;strokeColor=#23445D;exitX=1;exitY=0.5;exitDx=0;exitDy=0;" edge="1" parent="1" source="dWubEJJqkw_rELNpz6dQ-451">
          <mxGeometry width="100" height="100" relative="1" as="geometry">
            <mxPoint x="970" y="-20" as="sourcePoint" />
            <mxPoint x="1020" y="-100.00000000000045" as="targetPoint" />
            <Array as="points">
              <mxPoint x="1020" y="-50" />
            </Array>
          </mxGeometry>
        </mxCell>
        <mxCell id="dWubEJJqkw_rELNpz6dQ-479" value="" style="edgeStyle=elbowEdgeStyle;elbow=horizontal;rounded=0;fontColor=#000000;endArrow=none;endFill=0;strokeWidth=8;strokeColor=#23445D;exitX=1;exitY=0.5;exitDx=0;exitDy=0;entryX=1;entryY=0.5;entryDx=0;entryDy=0;" edge="1" parent="1">
          <mxGeometry width="100" height="100" relative="1" as="geometry">
            <mxPoint x="1200" y="-260.00000000000045" as="sourcePoint" />
            <mxPoint x="1200" y="-180.00000000000045" as="targetPoint" />
            <Array as="points">
              <mxPoint x="1260" y="-220" />
            </Array>
          </mxGeometry>
        </mxCell>
        <mxCell id="dWubEJJqkw_rELNpz6dQ-480" value="" style="edgeStyle=elbowEdgeStyle;elbow=horizontal;rounded=0;fontColor=#000000;endArrow=none;endFill=0;strokeWidth=8;strokeColor=#23445D;exitX=1;exitY=0.5;exitDx=0;exitDy=0;" edge="1" parent="1">
          <mxGeometry width="100" height="100" relative="1" as="geometry">
            <mxPoint x="1200" y="-100.00000000000045" as="sourcePoint" />
            <mxPoint x="1260" y="-180.00000000000045" as="targetPoint" />
            <Array as="points">
              <mxPoint x="1260" y="-140" />
            </Array>
          </mxGeometry>
        </mxCell>
        <mxCell id="dWubEJJqkw_rELNpz6dQ-481" value="" style="edgeStyle=elbowEdgeStyle;elbow=horizontal;rounded=0;fontColor=#000000;endArrow=none;endFill=0;strokeWidth=8;strokeColor=#23445D;exitX=1;exitY=0.5;exitDx=0;exitDy=0;" edge="1" parent="1">
          <mxGeometry width="100" height="100" relative="1" as="geometry">
            <mxPoint x="1200" y="-20.000000000000455" as="sourcePoint" />
            <mxPoint x="1260" y="-100.00000000000045" as="targetPoint" />
            <Array as="points">
              <mxPoint x="1260" y="-50" />
            </Array>
          </mxGeometry>
        </mxCell>
        <mxCell id="dWubEJJqkw_rELNpz6dQ-482" value="" style="edgeStyle=elbowEdgeStyle;elbow=horizontal;rounded=0;fontColor=#000000;endArrow=none;endFill=0;strokeWidth=8;strokeColor=#23445D;exitX=1;exitY=0.5;exitDx=0;exitDy=0;entryX=1;entryY=0.5;entryDx=0;entryDy=0;" edge="1" parent="1">
          <mxGeometry width="100" height="100" relative="1" as="geometry">
            <mxPoint x="1430" y="-260.00000000000045" as="sourcePoint" />
            <mxPoint x="1430" y="-180.00000000000045" as="targetPoint" />
            <Array as="points">
              <mxPoint x="1490" y="-220" />
            </Array>
          </mxGeometry>
        </mxCell>
        <mxCell id="dWubEJJqkw_rELNpz6dQ-483" value="" style="edgeStyle=elbowEdgeStyle;elbow=horizontal;rounded=0;fontColor=#000000;endArrow=none;endFill=0;strokeWidth=8;strokeColor=#23445D;exitX=1;exitY=0.5;exitDx=0;exitDy=0;" edge="1" parent="1">
          <mxGeometry width="100" height="100" relative="1" as="geometry">
            <mxPoint x="1430" y="-100.00000000000045" as="sourcePoint" />
            <mxPoint x="1490" y="-180.00000000000045" as="targetPoint" />
            <Array as="points">
              <mxPoint x="1490" y="-140" />
            </Array>
          </mxGeometry>
        </mxCell>
        <mxCell id="dWubEJJqkw_rELNpz6dQ-484" value="" style="edgeStyle=elbowEdgeStyle;elbow=horizontal;rounded=0;fontColor=#000000;endArrow=none;endFill=0;strokeWidth=8;strokeColor=#23445D;exitX=1;exitY=0.5;exitDx=0;exitDy=0;" edge="1" parent="1">
          <mxGeometry width="100" height="100" relative="1" as="geometry">
            <mxPoint x="1430" y="-20.000000000000455" as="sourcePoint" />
            <mxPoint x="1490" y="-100.00000000000045" as="targetPoint" />
            <Array as="points">
              <mxPoint x="1490" y="-50" />
            </Array>
          </mxGeometry>
        </mxCell>
        <mxCell id="dWubEJJqkw_rELNpz6dQ-485" value="" style="edgeStyle=elbowEdgeStyle;elbow=horizontal;rounded=0;fontColor=#000000;endArrow=none;endFill=0;strokeWidth=8;strokeColor=#23445D;exitX=1;exitY=0.5;exitDx=0;exitDy=0;entryX=1;entryY=0.5;entryDx=0;entryDy=0;" edge="1" parent="1">
          <mxGeometry width="100" height="100" relative="1" as="geometry">
            <mxPoint x="1660" y="-260.00000000000045" as="sourcePoint" />
            <mxPoint x="1660" y="-180.00000000000045" as="targetPoint" />
            <Array as="points">
              <mxPoint x="1720" y="-220" />
            </Array>
          </mxGeometry>
        </mxCell>
        <mxCell id="dWubEJJqkw_rELNpz6dQ-486" value="" style="edgeStyle=elbowEdgeStyle;elbow=horizontal;rounded=0;fontColor=#000000;endArrow=none;endFill=0;strokeWidth=8;strokeColor=#23445D;exitX=1;exitY=0.5;exitDx=0;exitDy=0;" edge="1" parent="1">
          <mxGeometry width="100" height="100" relative="1" as="geometry">
            <mxPoint x="1660" y="-100.00000000000045" as="sourcePoint" />
            <mxPoint x="1720" y="-180.00000000000045" as="targetPoint" />
            <Array as="points">
              <mxPoint x="1720" y="-140" />
            </Array>
          </mxGeometry>
        </mxCell>
        <mxCell id="dWubEJJqkw_rELNpz6dQ-487" value="" style="edgeStyle=elbowEdgeStyle;elbow=horizontal;rounded=0;fontColor=#000000;endArrow=none;endFill=0;strokeWidth=8;strokeColor=#23445D;exitX=1;exitY=0.5;exitDx=0;exitDy=0;" edge="1" parent="1">
          <mxGeometry width="100" height="100" relative="1" as="geometry">
            <mxPoint x="1660" y="-20.000000000000455" as="sourcePoint" />
            <mxPoint x="1720" y="-100.00000000000045" as="targetPoint" />
            <Array as="points">
              <mxPoint x="1720" y="-50" />
            </Array>
          </mxGeometry>
        </mxCell>
        <mxCell id="dWubEJJqkw_rELNpz6dQ-492" value="Brand 3" style="whiteSpace=wrap;rounded=1;fillColor=#12AAB5;strokeColor=none;shadow=1;fontColor=#FFFFFF;" vertex="1" parent="1">
          <mxGeometry x="2360" y="-389.9999999999999" width="120" height="60" as="geometry" />
        </mxCell>
        <mxCell id="dWubEJJqkw_rELNpz6dQ-493" value="Brand 4" style="whiteSpace=wrap;rounded=1;fillColor=#12AAB5;strokeColor=none;shadow=1;fontColor=#FFFFFF;" vertex="1" parent="1">
          <mxGeometry x="2590" y="-389.9999999999999" width="120" height="60" as="geometry" />
        </mxCell>
        <mxCell id="dWubEJJqkw_rELNpz6dQ-494" value="" style="edgeStyle=elbowEdgeStyle;elbow=vertical;rounded=0;fontColor=#000000;endArrow=none;endFill=0;strokeWidth=8;strokeColor=#23445D;exitX=0.5;exitY=1;exitDx=0;exitDy=0;" edge="1" parent="1" target="dWubEJJqkw_rELNpz6dQ-492">
          <mxGeometry width="100" height="100" relative="1" as="geometry">
            <mxPoint x="2310" y="-479.99999999999955" as="sourcePoint" />
            <mxPoint x="2440" y="-500" as="targetPoint" />
          </mxGeometry>
        </mxCell>
        <mxCell id="dWubEJJqkw_rELNpz6dQ-495" value="" style="edgeStyle=elbowEdgeStyle;elbow=vertical;rounded=0;fontColor=#000000;endArrow=none;endFill=0;strokeWidth=8;strokeColor=#23445D;" edge="1" parent="1" target="dWubEJJqkw_rELNpz6dQ-493">
          <mxGeometry width="100" height="100" relative="1" as="geometry">
            <mxPoint x="2310" y="-480" as="sourcePoint" />
            <mxPoint x="2780" y="-500" as="targetPoint" />
          </mxGeometry>
        </mxCell>
        <mxCell id="dWubEJJqkw_rELNpz6dQ-496" value="" style="edgeStyle=elbowEdgeStyle;elbow=horizontal;rounded=0;fontColor=#000000;endArrow=none;endFill=0;strokeWidth=8;strokeColor=#23445D;" edge="1" parent="1" source="dWubEJJqkw_rELNpz6dQ-492">
          <mxGeometry width="100" height="100" relative="1" as="geometry">
            <mxPoint x="2300" y="-210" as="sourcePoint" />
            <mxPoint x="2360" y="-260.00000000000045" as="targetPoint" />
            <Array as="points">
              <mxPoint x="2340" y="-310" />
            </Array>
          </mxGeometry>
        </mxCell>
        <mxCell id="dWubEJJqkw_rELNpz6dQ-497" value="" style="edgeStyle=elbowEdgeStyle;elbow=horizontal;rounded=0;fontColor=#000000;endArrow=none;endFill=0;strokeWidth=8;strokeColor=#23445D;" edge="1" parent="1" source="dWubEJJqkw_rELNpz6dQ-492">
          <mxGeometry width="100" height="100" relative="1" as="geometry">
            <mxPoint x="2370" y="-350" as="sourcePoint" />
            <mxPoint x="2360" y="-180.00000000000045" as="targetPoint" />
            <Array as="points">
              <mxPoint x="2340" y="-290" />
            </Array>
          </mxGeometry>
        </mxCell>
        <mxCell id="dWubEJJqkw_rELNpz6dQ-498" value="" style="edgeStyle=elbowEdgeStyle;elbow=horizontal;rounded=0;fontColor=#000000;endArrow=none;endFill=0;strokeWidth=8;strokeColor=#23445D;" edge="1" parent="1" source="dWubEJJqkw_rELNpz6dQ-492">
          <mxGeometry width="100" height="100" relative="1" as="geometry">
            <mxPoint x="2390" y="-330" as="sourcePoint" />
            <mxPoint x="2360" y="-20.000000000000455" as="targetPoint" />
            <Array as="points">
              <mxPoint x="2340" y="-280" />
            </Array>
          </mxGeometry>
        </mxCell>
        <mxCell id="dWubEJJqkw_rELNpz6dQ-499" value="" style="edgeStyle=elbowEdgeStyle;elbow=horizontal;rounded=0;fontColor=#000000;endArrow=none;endFill=0;strokeWidth=8;strokeColor=#23445D;" edge="1" parent="1" source="dWubEJJqkw_rELNpz6dQ-492">
          <mxGeometry width="100" height="100" relative="1" as="geometry">
            <mxPoint x="2400" y="-320" as="sourcePoint" />
            <mxPoint x="2360" y="-100.00000000000045" as="targetPoint" />
            <Array as="points">
              <mxPoint x="2340" y="-260" />
            </Array>
          </mxGeometry>
        </mxCell>
        <mxCell id="dWubEJJqkw_rELNpz6dQ-500" value="" style="edgeStyle=elbowEdgeStyle;elbow=horizontal;rounded=0;fontColor=#000000;endArrow=none;endFill=0;strokeWidth=8;strokeColor=#23445D;" edge="1" parent="1">
          <mxGeometry width="100" height="100" relative="1" as="geometry">
            <mxPoint x="2580" y="-359.99999999999955" as="sourcePoint" />
            <mxPoint x="2590" y="-260.00000000000045" as="targetPoint" />
            <Array as="points">
              <mxPoint x="2570" y="-310" />
            </Array>
          </mxGeometry>
        </mxCell>
        <mxCell id="dWubEJJqkw_rELNpz6dQ-501" value="" style="edgeStyle=elbowEdgeStyle;elbow=horizontal;rounded=0;fontColor=#000000;endArrow=none;endFill=0;strokeWidth=8;strokeColor=#23445D;" edge="1" parent="1" source="dWubEJJqkw_rELNpz6dQ-493">
          <mxGeometry width="100" height="100" relative="1" as="geometry">
            <mxPoint x="2580" y="-359.99999999999955" as="sourcePoint" />
            <mxPoint x="2590" y="-180.00000000000045" as="targetPoint" />
            <Array as="points">
              <mxPoint x="2570" y="-270" />
            </Array>
          </mxGeometry>
        </mxCell>
        <mxCell id="dWubEJJqkw_rELNpz6dQ-502" value="" style="edgeStyle=elbowEdgeStyle;elbow=horizontal;rounded=0;fontColor=#000000;endArrow=none;endFill=0;strokeWidth=8;strokeColor=#23445D;entryX=0;entryY=0.5;entryDx=0;entryDy=0;" edge="1" parent="1" source="dWubEJJqkw_rELNpz6dQ-493" target="dWubEJJqkw_rELNpz6dQ-530">
          <mxGeometry width="100" height="100" relative="1" as="geometry">
            <mxPoint x="2580" y="-359.99999999999955" as="sourcePoint" />
            <mxPoint x="2590" y="60" as="targetPoint" />
            <Array as="points">
              <mxPoint x="2570" y="-150" />
            </Array>
          </mxGeometry>
        </mxCell>
        <mxCell id="dWubEJJqkw_rELNpz6dQ-503" value="" style="edgeStyle=elbowEdgeStyle;elbow=horizontal;rounded=0;fontColor=#000000;endArrow=none;endFill=0;strokeWidth=8;strokeColor=#23445D;" edge="1" parent="1" source="dWubEJJqkw_rELNpz6dQ-493">
          <mxGeometry width="100" height="100" relative="1" as="geometry">
            <mxPoint x="2580" y="-359.99999999999955" as="sourcePoint" />
            <mxPoint x="2590" y="-20.000000000000455" as="targetPoint" />
            <Array as="points">
              <mxPoint x="2570" y="-190" />
            </Array>
          </mxGeometry>
        </mxCell>
        <mxCell id="dWubEJJqkw_rELNpz6dQ-504" value="Brand 1" style="whiteSpace=wrap;rounded=1;fillColor=#12AAB5;strokeColor=none;shadow=1;fontColor=#FFFFFF;" vertex="1" parent="1">
          <mxGeometry x="1890" y="-389.9999999999999" width="120" height="60" as="geometry" />
        </mxCell>
        <mxCell id="dWubEJJqkw_rELNpz6dQ-505" value="Brand 2" style="whiteSpace=wrap;rounded=1;fillColor=#12AAB5;strokeColor=none;shadow=1;fontColor=#FFFFFF;" vertex="1" parent="1">
          <mxGeometry x="2130" y="-389.9999999999999" width="120" height="60" as="geometry" />
        </mxCell>
        <mxCell id="dWubEJJqkw_rELNpz6dQ-506" value="Product 1" style="whiteSpace=wrap;rounded=1;fillColor=#999999;strokeColor=none;shadow=1;fontColor=#FFFFFF;fontStyle=0" vertex="1" parent="1">
          <mxGeometry x="1890" y="-289.9999999999999" width="120" height="60" as="geometry" />
        </mxCell>
        <mxCell id="dWubEJJqkw_rELNpz6dQ-507" value="Product 2" style="whiteSpace=wrap;rounded=1;fillColor=#999999;strokeColor=none;shadow=1;fontColor=#FFFFFF;fontStyle=0" vertex="1" parent="1">
          <mxGeometry x="1890" y="-209.9999999999999" width="120" height="60" as="geometry" />
        </mxCell>
        <mxCell id="dWubEJJqkw_rELNpz6dQ-508" value="Product 3" style="whiteSpace=wrap;rounded=1;fillColor=#999999;strokeColor=none;shadow=1;fontColor=#FFFFFF;fontStyle=0" vertex="1" parent="1">
          <mxGeometry x="1890" y="-129.9999999999999" width="120" height="60" as="geometry" />
        </mxCell>
        <mxCell id="dWubEJJqkw_rELNpz6dQ-509" value="Product 4" style="whiteSpace=wrap;rounded=1;fillColor=#999999;strokeColor=none;shadow=1;fontColor=#FFFFFF;fontStyle=0" vertex="1" parent="1">
          <mxGeometry x="1890" y="-49.999999999999886" width="120" height="60" as="geometry" />
        </mxCell>
        <mxCell id="dWubEJJqkw_rELNpz6dQ-510" value="" style="edgeStyle=elbowEdgeStyle;elbow=horizontal;rounded=0;fontColor=#000000;endArrow=none;endFill=0;strokeWidth=8;strokeColor=#23445D;" edge="1" parent="1" source="dWubEJJqkw_rELNpz6dQ-504" target="dWubEJJqkw_rELNpz6dQ-506">
          <mxGeometry width="100" height="100" relative="1" as="geometry">
            <mxPoint x="1830" y="-210" as="sourcePoint" />
            <mxPoint x="1930" y="-310" as="targetPoint" />
            <Array as="points">
              <mxPoint x="1870" y="-310" />
            </Array>
          </mxGeometry>
        </mxCell>
        <mxCell id="dWubEJJqkw_rELNpz6dQ-511" value="" style="edgeStyle=elbowEdgeStyle;elbow=horizontal;rounded=0;fontColor=#000000;endArrow=none;endFill=0;strokeWidth=8;strokeColor=#23445D;" edge="1" parent="1" source="dWubEJJqkw_rELNpz6dQ-504" target="dWubEJJqkw_rELNpz6dQ-507">
          <mxGeometry width="100" height="100" relative="1" as="geometry">
            <mxPoint x="1900" y="-350" as="sourcePoint" />
            <mxPoint x="1900" y="-250" as="targetPoint" />
            <Array as="points">
              <mxPoint x="1870" y="-290" />
            </Array>
          </mxGeometry>
        </mxCell>
        <mxCell id="dWubEJJqkw_rELNpz6dQ-512" value="" style="edgeStyle=elbowEdgeStyle;elbow=horizontal;rounded=0;fontColor=#000000;endArrow=none;endFill=0;strokeWidth=8;strokeColor=#23445D;" edge="1" parent="1" source="dWubEJJqkw_rELNpz6dQ-504" target="dWubEJJqkw_rELNpz6dQ-509">
          <mxGeometry width="100" height="100" relative="1" as="geometry">
            <mxPoint x="1920" y="-330" as="sourcePoint" />
            <mxPoint x="1920" y="-230" as="targetPoint" />
            <Array as="points">
              <mxPoint x="1870" y="-280" />
            </Array>
          </mxGeometry>
        </mxCell>
        <mxCell id="dWubEJJqkw_rELNpz6dQ-513" value="" style="edgeStyle=elbowEdgeStyle;elbow=horizontal;rounded=0;fontColor=#000000;endArrow=none;endFill=0;strokeWidth=8;strokeColor=#23445D;" edge="1" parent="1" source="dWubEJJqkw_rELNpz6dQ-504" target="dWubEJJqkw_rELNpz6dQ-508">
          <mxGeometry width="100" height="100" relative="1" as="geometry">
            <mxPoint x="1930" y="-320" as="sourcePoint" />
            <mxPoint x="1930" y="-220" as="targetPoint" />
            <Array as="points">
              <mxPoint x="1870" y="-260" />
            </Array>
          </mxGeometry>
        </mxCell>
        <mxCell id="dWubEJJqkw_rELNpz6dQ-514" value="" style="edgeStyle=elbowEdgeStyle;elbow=horizontal;rounded=0;fontColor=#000000;endArrow=none;endFill=0;strokeWidth=8;strokeColor=#23445D;entryX=0;entryY=0.5;entryDx=0;entryDy=0;" edge="1" parent="1" target="dWubEJJqkw_rELNpz6dQ-520">
          <mxGeometry width="100" height="100" relative="1" as="geometry">
            <mxPoint x="2120" y="-359.99999999999955" as="sourcePoint" />
            <mxPoint x="2129.9999999999995" y="-260" as="targetPoint" />
            <Array as="points">
              <mxPoint x="2110" y="-310" />
            </Array>
          </mxGeometry>
        </mxCell>
        <mxCell id="dWubEJJqkw_rELNpz6dQ-515" value="" style="edgeStyle=elbowEdgeStyle;elbow=horizontal;rounded=0;fontColor=#000000;endArrow=none;endFill=0;strokeWidth=8;strokeColor=#23445D;" edge="1" parent="1" source="dWubEJJqkw_rELNpz6dQ-505">
          <mxGeometry width="100" height="100" relative="1" as="geometry">
            <mxPoint x="2120" y="-359.99999999999955" as="sourcePoint" />
            <mxPoint x="2130" y="-180.00000000000045" as="targetPoint" />
            <Array as="points">
              <mxPoint x="2110" y="-270" />
            </Array>
          </mxGeometry>
        </mxCell>
        <mxCell id="dWubEJJqkw_rELNpz6dQ-516" value="" style="edgeStyle=elbowEdgeStyle;elbow=horizontal;rounded=0;fontColor=#000000;endArrow=none;endFill=0;strokeWidth=8;strokeColor=#23445D;" edge="1" parent="1" source="dWubEJJqkw_rELNpz6dQ-505">
          <mxGeometry width="100" height="100" relative="1" as="geometry">
            <mxPoint x="2120" y="-359.99999999999955" as="sourcePoint" />
            <mxPoint x="2130" y="-20.000000000000455" as="targetPoint" />
            <Array as="points">
              <mxPoint x="2110" y="-190" />
            </Array>
          </mxGeometry>
        </mxCell>
        <mxCell id="dWubEJJqkw_rELNpz6dQ-517" value="" style="edgeStyle=elbowEdgeStyle;elbow=horizontal;rounded=0;fontColor=#000000;endArrow=none;endFill=0;strokeWidth=8;strokeColor=#23445D;" edge="1" parent="1" source="dWubEJJqkw_rELNpz6dQ-505" target="dWubEJJqkw_rELNpz6dQ-522">
          <mxGeometry width="100" height="100" relative="1" as="geometry">
            <mxPoint x="2120" y="-359.99999999999955" as="sourcePoint" />
            <mxPoint x="2129.9999999999995" y="-100" as="targetPoint" />
            <Array as="points">
              <mxPoint x="2110" y="-230" />
            </Array>
          </mxGeometry>
        </mxCell>
        <mxCell id="dWubEJJqkw_rELNpz6dQ-518" value="" style="edgeStyle=elbowEdgeStyle;elbow=vertical;rounded=0;fontColor=#000000;endArrow=none;endFill=0;strokeWidth=8;strokeColor=#23445D;entryX=0.5;entryY=0;entryDx=0;entryDy=0;" edge="1" parent="1" target="dWubEJJqkw_rELNpz6dQ-505">
          <mxGeometry width="100" height="100" relative="1" as="geometry">
            <mxPoint x="2310" y="-480" as="sourcePoint" />
            <mxPoint x="2370" y="-410" as="targetPoint" />
          </mxGeometry>
        </mxCell>
        <mxCell id="dWubEJJqkw_rELNpz6dQ-519" value="" style="edgeStyle=elbowEdgeStyle;elbow=vertical;rounded=0;fontColor=#000000;endArrow=none;endFill=0;strokeWidth=8;strokeColor=#23445D;entryX=0.5;entryY=0;entryDx=0;entryDy=0;" edge="1" parent="1" target="dWubEJJqkw_rELNpz6dQ-504">
          <mxGeometry width="100" height="100" relative="1" as="geometry">
            <mxPoint x="2310" y="-480" as="sourcePoint" />
            <mxPoint x="2280" y="-380" as="targetPoint" />
          </mxGeometry>
        </mxCell>
        <mxCell id="dWubEJJqkw_rELNpz6dQ-520" value="Product 1" style="whiteSpace=wrap;rounded=1;fillColor=#999999;strokeColor=none;shadow=1;fontColor=#FFFFFF;fontStyle=0" vertex="1" parent="1">
          <mxGeometry x="2130" y="-289.9999999999999" width="120" height="60" as="geometry" />
        </mxCell>
        <mxCell id="dWubEJJqkw_rELNpz6dQ-521" value="Product 2" style="whiteSpace=wrap;rounded=1;fillColor=#999999;strokeColor=none;shadow=1;fontColor=#FFFFFF;fontStyle=0" vertex="1" parent="1">
          <mxGeometry x="2130" y="-209.9999999999999" width="120" height="60" as="geometry" />
        </mxCell>
        <mxCell id="dWubEJJqkw_rELNpz6dQ-522" value="Product 3" style="whiteSpace=wrap;rounded=1;fillColor=#999999;strokeColor=none;shadow=1;fontColor=#FFFFFF;fontStyle=0" vertex="1" parent="1">
          <mxGeometry x="2130" y="-129.9999999999999" width="120" height="60" as="geometry" />
        </mxCell>
        <mxCell id="dWubEJJqkw_rELNpz6dQ-523" value="Product 4" style="whiteSpace=wrap;rounded=1;fillColor=#999999;strokeColor=none;shadow=1;fontColor=#FFFFFF;fontStyle=0" vertex="1" parent="1">
          <mxGeometry x="2130" y="-49.999999999999886" width="120" height="60" as="geometry" />
        </mxCell>
        <mxCell id="dWubEJJqkw_rELNpz6dQ-524" value="Product 1" style="whiteSpace=wrap;rounded=1;fillColor=#999999;strokeColor=none;shadow=1;fontColor=#FFFFFF;fontStyle=0" vertex="1" parent="1">
          <mxGeometry x="2360" y="-289.9999999999999" width="120" height="60" as="geometry" />
        </mxCell>
        <mxCell id="dWubEJJqkw_rELNpz6dQ-525" value="Product 2" style="whiteSpace=wrap;rounded=1;fillColor=#999999;strokeColor=none;shadow=1;fontColor=#FFFFFF;fontStyle=0" vertex="1" parent="1">
          <mxGeometry x="2360" y="-209.9999999999999" width="120" height="60" as="geometry" />
        </mxCell>
        <mxCell id="dWubEJJqkw_rELNpz6dQ-526" value="Product 3" style="whiteSpace=wrap;rounded=1;fillColor=#999999;strokeColor=none;shadow=1;fontColor=#FFFFFF;fontStyle=0" vertex="1" parent="1">
          <mxGeometry x="2360" y="-129.9999999999999" width="120" height="60" as="geometry" />
        </mxCell>
        <mxCell id="dWubEJJqkw_rELNpz6dQ-527" value="Product 4" style="whiteSpace=wrap;rounded=1;fillColor=#999999;strokeColor=none;shadow=1;fontColor=#FFFFFF;fontStyle=0" vertex="1" parent="1">
          <mxGeometry x="2360" y="-49.999999999999886" width="120" height="60" as="geometry" />
        </mxCell>
        <mxCell id="dWubEJJqkw_rELNpz6dQ-528" value="Product 1" style="whiteSpace=wrap;rounded=1;fillColor=#999999;strokeColor=none;shadow=1;fontColor=#FFFFFF;fontStyle=0" vertex="1" parent="1">
          <mxGeometry x="2590" y="-289.9999999999999" width="120" height="60" as="geometry" />
        </mxCell>
        <mxCell id="dWubEJJqkw_rELNpz6dQ-529" value="Product 2" style="whiteSpace=wrap;rounded=1;fillColor=#999999;strokeColor=none;shadow=1;fontColor=#FFFFFF;fontStyle=0" vertex="1" parent="1">
          <mxGeometry x="2590" y="-209.9999999999999" width="120" height="60" as="geometry" />
        </mxCell>
        <mxCell id="dWubEJJqkw_rELNpz6dQ-530" value="Product 3" style="whiteSpace=wrap;rounded=1;fillColor=#999999;strokeColor=none;shadow=1;fontColor=#FFFFFF;fontStyle=0" vertex="1" parent="1">
          <mxGeometry x="2590" y="-129.9999999999999" width="120" height="60" as="geometry" />
        </mxCell>
        <mxCell id="dWubEJJqkw_rELNpz6dQ-531" value="Product 4" style="whiteSpace=wrap;rounded=1;fillColor=#999999;strokeColor=none;shadow=1;fontColor=#FFFFFF;fontStyle=0" vertex="1" parent="1">
          <mxGeometry x="2590" y="-49.999999999999886" width="120" height="60" as="geometry" />
        </mxCell>
        <mxCell id="dWubEJJqkw_rELNpz6dQ-532" value="" style="edgeStyle=elbowEdgeStyle;elbow=horizontal;rounded=0;fontColor=#000000;endArrow=none;endFill=0;strokeWidth=8;strokeColor=#23445D;exitX=1;exitY=0.5;exitDx=0;exitDy=0;entryX=1;entryY=0.5;entryDx=0;entryDy=0;" edge="1" parent="1" source="dWubEJJqkw_rELNpz6dQ-506" target="dWubEJJqkw_rELNpz6dQ-507">
          <mxGeometry width="100" height="100" relative="1" as="geometry">
            <mxPoint x="1900" y="-350" as="sourcePoint" />
            <mxPoint x="1900" y="-90" as="targetPoint" />
            <Array as="points">
              <mxPoint x="2070" y="-220" />
            </Array>
          </mxGeometry>
        </mxCell>
        <mxCell id="dWubEJJqkw_rELNpz6dQ-533" value="" style="edgeStyle=elbowEdgeStyle;elbow=horizontal;rounded=0;fontColor=#000000;endArrow=none;endFill=0;strokeWidth=8;strokeColor=#23445D;exitX=1;exitY=0.5;exitDx=0;exitDy=0;" edge="1" parent="1" source="dWubEJJqkw_rELNpz6dQ-508">
          <mxGeometry width="100" height="100" relative="1" as="geometry">
            <mxPoint x="2020" y="-250" as="sourcePoint" />
            <mxPoint x="2070" y="-180.00000000000045" as="targetPoint" />
            <Array as="points">
              <mxPoint x="2070" y="-140" />
            </Array>
          </mxGeometry>
        </mxCell>
        <mxCell id="dWubEJJqkw_rELNpz6dQ-534" value="" style="edgeStyle=elbowEdgeStyle;elbow=horizontal;rounded=0;fontColor=#000000;endArrow=none;endFill=0;strokeWidth=8;strokeColor=#23445D;exitX=1;exitY=0.5;exitDx=0;exitDy=0;" edge="1" parent="1" source="dWubEJJqkw_rELNpz6dQ-509">
          <mxGeometry width="100" height="100" relative="1" as="geometry">
            <mxPoint x="2020" y="-20" as="sourcePoint" />
            <mxPoint x="2070" y="-100.00000000000045" as="targetPoint" />
            <Array as="points">
              <mxPoint x="2070" y="-50" />
            </Array>
          </mxGeometry>
        </mxCell>
        <mxCell id="dWubEJJqkw_rELNpz6dQ-537" value="" style="edgeStyle=elbowEdgeStyle;elbow=horizontal;rounded=0;fontColor=#000000;endArrow=none;endFill=0;strokeWidth=8;strokeColor=#23445D;exitX=1;exitY=0.5;exitDx=0;exitDy=0;entryX=1;entryY=0.5;entryDx=0;entryDy=0;" edge="1" parent="1">
          <mxGeometry width="100" height="100" relative="1" as="geometry">
            <mxPoint x="2250" y="-260.00000000000045" as="sourcePoint" />
            <mxPoint x="2250" y="-180.00000000000045" as="targetPoint" />
            <Array as="points">
              <mxPoint x="2310" y="-220" />
            </Array>
          </mxGeometry>
        </mxCell>
        <mxCell id="dWubEJJqkw_rELNpz6dQ-538" value="" style="edgeStyle=elbowEdgeStyle;elbow=horizontal;rounded=0;fontColor=#000000;endArrow=none;endFill=0;strokeWidth=8;strokeColor=#23445D;exitX=1;exitY=0.5;exitDx=0;exitDy=0;" edge="1" parent="1">
          <mxGeometry width="100" height="100" relative="1" as="geometry">
            <mxPoint x="2250" y="-100.00000000000045" as="sourcePoint" />
            <mxPoint x="2310" y="-180.00000000000045" as="targetPoint" />
            <Array as="points">
              <mxPoint x="2310" y="-140" />
            </Array>
          </mxGeometry>
        </mxCell>
        <mxCell id="dWubEJJqkw_rELNpz6dQ-539" value="" style="edgeStyle=elbowEdgeStyle;elbow=horizontal;rounded=0;fontColor=#000000;endArrow=none;endFill=0;strokeWidth=8;strokeColor=#23445D;exitX=1;exitY=0.5;exitDx=0;exitDy=0;" edge="1" parent="1">
          <mxGeometry width="100" height="100" relative="1" as="geometry">
            <mxPoint x="2250" y="-20.000000000000455" as="sourcePoint" />
            <mxPoint x="2310" y="-100.00000000000045" as="targetPoint" />
            <Array as="points">
              <mxPoint x="2310" y="-50" />
            </Array>
          </mxGeometry>
        </mxCell>
        <mxCell id="dWubEJJqkw_rELNpz6dQ-540" value="" style="edgeStyle=elbowEdgeStyle;elbow=horizontal;rounded=0;fontColor=#000000;endArrow=none;endFill=0;strokeWidth=8;strokeColor=#23445D;exitX=1;exitY=0.5;exitDx=0;exitDy=0;entryX=1;entryY=0.5;entryDx=0;entryDy=0;" edge="1" parent="1">
          <mxGeometry width="100" height="100" relative="1" as="geometry">
            <mxPoint x="2480" y="-260.00000000000045" as="sourcePoint" />
            <mxPoint x="2480" y="-180.00000000000045" as="targetPoint" />
            <Array as="points">
              <mxPoint x="2540" y="-220" />
            </Array>
          </mxGeometry>
        </mxCell>
        <mxCell id="dWubEJJqkw_rELNpz6dQ-541" value="" style="edgeStyle=elbowEdgeStyle;elbow=horizontal;rounded=0;fontColor=#000000;endArrow=none;endFill=0;strokeWidth=8;strokeColor=#23445D;exitX=1;exitY=0.5;exitDx=0;exitDy=0;" edge="1" parent="1">
          <mxGeometry width="100" height="100" relative="1" as="geometry">
            <mxPoint x="2480" y="-100.00000000000045" as="sourcePoint" />
            <mxPoint x="2540" y="-180.00000000000045" as="targetPoint" />
            <Array as="points">
              <mxPoint x="2540" y="-140" />
            </Array>
          </mxGeometry>
        </mxCell>
        <mxCell id="dWubEJJqkw_rELNpz6dQ-542" value="" style="edgeStyle=elbowEdgeStyle;elbow=horizontal;rounded=0;fontColor=#000000;endArrow=none;endFill=0;strokeWidth=8;strokeColor=#23445D;exitX=1;exitY=0.5;exitDx=0;exitDy=0;" edge="1" parent="1">
          <mxGeometry width="100" height="100" relative="1" as="geometry">
            <mxPoint x="2480" y="-20.000000000000455" as="sourcePoint" />
            <mxPoint x="2540" y="-100.00000000000045" as="targetPoint" />
            <Array as="points">
              <mxPoint x="2540" y="-50" />
            </Array>
          </mxGeometry>
        </mxCell>
        <mxCell id="dWubEJJqkw_rELNpz6dQ-543" value="" style="edgeStyle=elbowEdgeStyle;elbow=horizontal;rounded=0;fontColor=#000000;endArrow=none;endFill=0;strokeWidth=8;strokeColor=#23445D;exitX=1;exitY=0.5;exitDx=0;exitDy=0;entryX=1;entryY=0.5;entryDx=0;entryDy=0;" edge="1" parent="1">
          <mxGeometry width="100" height="100" relative="1" as="geometry">
            <mxPoint x="2710" y="-260.00000000000045" as="sourcePoint" />
            <mxPoint x="2710" y="-180.00000000000045" as="targetPoint" />
            <Array as="points">
              <mxPoint x="2770" y="-220" />
            </Array>
          </mxGeometry>
        </mxCell>
        <mxCell id="dWubEJJqkw_rELNpz6dQ-544" value="" style="edgeStyle=elbowEdgeStyle;elbow=horizontal;rounded=0;fontColor=#000000;endArrow=none;endFill=0;strokeWidth=8;strokeColor=#23445D;exitX=1;exitY=0.5;exitDx=0;exitDy=0;" edge="1" parent="1">
          <mxGeometry width="100" height="100" relative="1" as="geometry">
            <mxPoint x="2710" y="-100.00000000000045" as="sourcePoint" />
            <mxPoint x="2770" y="-180.00000000000045" as="targetPoint" />
            <Array as="points">
              <mxPoint x="2770" y="-140" />
            </Array>
          </mxGeometry>
        </mxCell>
        <mxCell id="dWubEJJqkw_rELNpz6dQ-545" value="" style="edgeStyle=elbowEdgeStyle;elbow=horizontal;rounded=0;fontColor=#000000;endArrow=none;endFill=0;strokeWidth=8;strokeColor=#23445D;exitX=1;exitY=0.5;exitDx=0;exitDy=0;" edge="1" parent="1">
          <mxGeometry width="100" height="100" relative="1" as="geometry">
            <mxPoint x="2710" y="-20.000000000000455" as="sourcePoint" />
            <mxPoint x="2770" y="-100.00000000000045" as="targetPoint" />
            <Array as="points">
              <mxPoint x="2770" y="-50" />
            </Array>
          </mxGeometry>
        </mxCell>
        <mxCell id="dWubEJJqkw_rELNpz6dQ-620" value="Product " style="whiteSpace=wrap;rounded=1;fillColor=#999999;strokeColor=none;shadow=1;fontColor=#FFFFFF;fontStyle=0" vertex="1" parent="1">
          <mxGeometry x="3120" y="-439.9999999999999" width="120" height="60" as="geometry" />
        </mxCell>
        <mxCell id="dWubEJJqkw_rELNpz6dQ-650" value="Cart/Payment" style="whiteSpace=wrap;rounded=1;fillColor=#60a917;strokeColor=#2D7600;shadow=1;fontColor=#ffffff;" vertex="1" parent="1">
          <mxGeometry x="3120" y="-337" width="120" height="60" as="geometry" />
        </mxCell>
        <mxCell id="dWubEJJqkw_rELNpz6dQ-663" value="" style="edgeStyle=elbowEdgeStyle;elbow=horizontal;rounded=0;fontColor=#000000;endArrow=none;endFill=0;strokeWidth=8;strokeColor=#23445D;exitX=0.5;exitY=1;exitDx=0;exitDy=0;entryX=0.5;entryY=0;entryDx=0;entryDy=0;" edge="1" parent="1" source="dWubEJJqkw_rELNpz6dQ-620" target="dWubEJJqkw_rELNpz6dQ-650">
          <mxGeometry width="100" height="100" relative="1" as="geometry">
            <mxPoint x="3240" y="-360" as="sourcePoint" />
            <mxPoint x="3180" y="-340" as="targetPoint" />
            <Array as="points">
              <mxPoint x="3180" y="-340" />
            </Array>
          </mxGeometry>
        </mxCell>
        <mxCell id="dWubEJJqkw_rELNpz6dQ-665" value="" style="edgeStyle=elbowEdgeStyle;elbow=horizontal;rounded=0;fontColor=#000000;endArrow=none;endFill=0;strokeWidth=8;strokeColor=#23445D;exitX=0.5;exitY=1;exitDx=0;exitDy=0;" edge="1" parent="1" target="dWubEJJqkw_rELNpz6dQ-620">
          <mxGeometry width="100" height="100" relative="1" as="geometry">
            <mxPoint x="3179.88" y="-480" as="sourcePoint" />
            <mxPoint x="3180" y="-437" as="targetPoint" />
            <Array as="points">
              <mxPoint x="3179.88" y="-440" />
            </Array>
          </mxGeometry>
        </mxCell>
        <mxCell id="dWubEJJqkw_rELNpz6dQ-667" value="" style="edgeStyle=elbowEdgeStyle;elbow=horizontal;rounded=0;fontColor=#000000;endArrow=none;endFill=0;strokeWidth=8;strokeColor=#23445D;" edge="1" parent="1">
          <mxGeometry width="100" height="100" relative="1" as="geometry">
            <mxPoint x="-720" y="310" as="sourcePoint" />
            <mxPoint x="-720" y="-20" as="targetPoint" />
            <Array as="points">
              <mxPoint x="-720" y="290" />
            </Array>
          </mxGeometry>
        </mxCell>
        <mxCell id="dWubEJJqkw_rELNpz6dQ-676" value="" style="edgeStyle=elbowEdgeStyle;elbow=horizontal;rounded=0;fontColor=#000000;endArrow=none;endFill=0;strokeWidth=8;strokeColor=#23445D;exitX=0;exitY=0.5;exitDx=0;exitDy=0;" edge="1" parent="1" source="dWubEJJqkw_rELNpz6dQ-677">
          <mxGeometry width="100" height="100" relative="1" as="geometry">
            <mxPoint x="170" y="300" as="sourcePoint" />
            <mxPoint x="30" y="-20" as="targetPoint" />
            <Array as="points">
              <mxPoint x="30" y="150" />
            </Array>
          </mxGeometry>
        </mxCell>
        <mxCell id="dWubEJJqkw_rELNpz6dQ-677" value="Cart/Payment" style="whiteSpace=wrap;rounded=1;fillColor=#60a917;strokeColor=#2D7600;shadow=1;fontColor=#ffffff;" vertex="1" parent="1">
          <mxGeometry x="310" y="280" width="120" height="60" as="geometry" />
        </mxCell>
        <mxCell id="dWubEJJqkw_rELNpz6dQ-678" value="" style="edgeStyle=elbowEdgeStyle;elbow=horizontal;rounded=0;fontColor=#000000;endArrow=none;endFill=0;strokeWidth=8;strokeColor=#23445D;exitX=1;exitY=0.5;exitDx=0;exitDy=0;" edge="1" parent="1" source="dWubEJJqkw_rELNpz6dQ-677">
          <mxGeometry width="100" height="100" relative="1" as="geometry">
            <mxPoint x="500" y="280" as="sourcePoint" />
            <mxPoint x="500" y="-20" as="targetPoint" />
            <Array as="points">
              <mxPoint x="500" y="140" />
              <mxPoint x="500" y="140" />
              <mxPoint x="480" y="310" />
              <mxPoint x="500" y="30" />
            </Array>
          </mxGeometry>
        </mxCell>
        <mxCell id="dWubEJJqkw_rELNpz6dQ-679" value="" style="edgeStyle=elbowEdgeStyle;elbow=horizontal;rounded=0;fontColor=#000000;endArrow=none;endFill=0;strokeWidth=8;strokeColor=#23445D;" edge="1" parent="1">
          <mxGeometry width="100" height="100" relative="1" as="geometry">
            <mxPoint x="500" y="310" as="sourcePoint" />
            <mxPoint x="730" y="-20" as="targetPoint" />
            <Array as="points">
              <mxPoint x="730" y="40" />
            </Array>
          </mxGeometry>
        </mxCell>
        <mxCell id="dWubEJJqkw_rELNpz6dQ-680" value="" style="edgeStyle=elbowEdgeStyle;elbow=horizontal;rounded=0;fontColor=#000000;endArrow=none;endFill=0;strokeWidth=8;strokeColor=#23445D;" edge="1" parent="1">
          <mxGeometry width="100" height="100" relative="1" as="geometry">
            <mxPoint x="270" y="310" as="sourcePoint" />
            <mxPoint x="270" y="-20" as="targetPoint" />
            <Array as="points">
              <mxPoint x="270" y="290" />
            </Array>
          </mxGeometry>
        </mxCell>
        <mxCell id="dWubEJJqkw_rELNpz6dQ-686" value="" style="edgeStyle=elbowEdgeStyle;elbow=horizontal;rounded=0;fontColor=#000000;endArrow=none;endFill=0;strokeWidth=8;strokeColor=#23445D;exitX=0;exitY=0.5;exitDx=0;exitDy=0;" edge="1" parent="1" source="dWubEJJqkw_rELNpz6dQ-687">
          <mxGeometry width="100" height="100" relative="1" as="geometry">
            <mxPoint x="1160" y="300" as="sourcePoint" />
            <mxPoint x="1020" y="-20" as="targetPoint" />
            <Array as="points">
              <mxPoint x="1020" y="150" />
            </Array>
          </mxGeometry>
        </mxCell>
        <mxCell id="dWubEJJqkw_rELNpz6dQ-687" value="Cart/Payment" style="whiteSpace=wrap;rounded=1;fillColor=#60a917;strokeColor=#2D7600;shadow=1;fontColor=#ffffff;" vertex="1" parent="1">
          <mxGeometry x="1300" y="280" width="120" height="60" as="geometry" />
        </mxCell>
        <mxCell id="dWubEJJqkw_rELNpz6dQ-688" value="" style="edgeStyle=elbowEdgeStyle;elbow=horizontal;rounded=0;fontColor=#000000;endArrow=none;endFill=0;strokeWidth=8;strokeColor=#23445D;exitX=1;exitY=0.5;exitDx=0;exitDy=0;" edge="1" parent="1" source="dWubEJJqkw_rELNpz6dQ-687">
          <mxGeometry width="100" height="100" relative="1" as="geometry">
            <mxPoint x="1490" y="280" as="sourcePoint" />
            <mxPoint x="1490" y="-20" as="targetPoint" />
            <Array as="points">
              <mxPoint x="1490" y="140" />
              <mxPoint x="1490" y="140" />
              <mxPoint x="1470" y="310" />
              <mxPoint x="1490" y="30" />
            </Array>
          </mxGeometry>
        </mxCell>
        <mxCell id="dWubEJJqkw_rELNpz6dQ-689" value="" style="edgeStyle=elbowEdgeStyle;elbow=horizontal;rounded=0;fontColor=#000000;endArrow=none;endFill=0;strokeWidth=8;strokeColor=#23445D;" edge="1" parent="1">
          <mxGeometry width="100" height="100" relative="1" as="geometry">
            <mxPoint x="1490" y="310" as="sourcePoint" />
            <mxPoint x="1720" y="-20" as="targetPoint" />
            <Array as="points">
              <mxPoint x="1720" y="40" />
            </Array>
          </mxGeometry>
        </mxCell>
        <mxCell id="dWubEJJqkw_rELNpz6dQ-690" value="" style="edgeStyle=elbowEdgeStyle;elbow=horizontal;rounded=0;fontColor=#000000;endArrow=none;endFill=0;strokeWidth=8;strokeColor=#23445D;" edge="1" parent="1">
          <mxGeometry width="100" height="100" relative="1" as="geometry">
            <mxPoint x="1260" y="310" as="sourcePoint" />
            <mxPoint x="1260" y="-20" as="targetPoint" />
            <Array as="points">
              <mxPoint x="1260" y="290" />
            </Array>
          </mxGeometry>
        </mxCell>
        <mxCell id="dWubEJJqkw_rELNpz6dQ-692" value="" style="edgeStyle=elbowEdgeStyle;elbow=horizontal;rounded=0;fontColor=#000000;endArrow=none;endFill=0;strokeWidth=8;strokeColor=#23445D;exitX=0;exitY=0.5;exitDx=0;exitDy=0;" edge="1" parent="1" source="dWubEJJqkw_rELNpz6dQ-693">
          <mxGeometry width="100" height="100" relative="1" as="geometry">
            <mxPoint x="2210" y="300" as="sourcePoint" />
            <mxPoint x="2070" y="-20" as="targetPoint" />
            <Array as="points">
              <mxPoint x="2070" y="150" />
            </Array>
          </mxGeometry>
        </mxCell>
        <mxCell id="dWubEJJqkw_rELNpz6dQ-693" value="Cart/Payment" style="whiteSpace=wrap;rounded=1;fillColor=#60a917;strokeColor=#2D7600;shadow=1;fontColor=#ffffff;" vertex="1" parent="1">
          <mxGeometry x="2350" y="280" width="120" height="60" as="geometry" />
        </mxCell>
        <mxCell id="dWubEJJqkw_rELNpz6dQ-694" value="" style="edgeStyle=elbowEdgeStyle;elbow=horizontal;rounded=0;fontColor=#000000;endArrow=none;endFill=0;strokeWidth=8;strokeColor=#23445D;exitX=1;exitY=0.5;exitDx=0;exitDy=0;" edge="1" parent="1" source="dWubEJJqkw_rELNpz6dQ-693">
          <mxGeometry width="100" height="100" relative="1" as="geometry">
            <mxPoint x="2540" y="280" as="sourcePoint" />
            <mxPoint x="2540" y="-20" as="targetPoint" />
            <Array as="points">
              <mxPoint x="2540" y="140" />
              <mxPoint x="2540" y="140" />
              <mxPoint x="2520" y="310" />
              <mxPoint x="2540" y="30" />
            </Array>
          </mxGeometry>
        </mxCell>
        <mxCell id="dWubEJJqkw_rELNpz6dQ-695" value="" style="edgeStyle=elbowEdgeStyle;elbow=horizontal;rounded=0;fontColor=#000000;endArrow=none;endFill=0;strokeWidth=8;strokeColor=#23445D;" edge="1" parent="1">
          <mxGeometry width="100" height="100" relative="1" as="geometry">
            <mxPoint x="2540" y="310" as="sourcePoint" />
            <mxPoint x="2770" y="-20" as="targetPoint" />
            <Array as="points">
              <mxPoint x="2770" y="40" />
            </Array>
          </mxGeometry>
        </mxCell>
        <mxCell id="dWubEJJqkw_rELNpz6dQ-696" value="" style="edgeStyle=elbowEdgeStyle;elbow=horizontal;rounded=0;fontColor=#000000;endArrow=none;endFill=0;strokeWidth=8;strokeColor=#23445D;" edge="1" parent="1">
          <mxGeometry width="100" height="100" relative="1" as="geometry">
            <mxPoint x="2310" y="310" as="sourcePoint" />
            <mxPoint x="2310" y="-20" as="targetPoint" />
            <Array as="points">
              <mxPoint x="2310" y="290" />
            </Array>
          </mxGeometry>
        </mxCell>
        <mxCell id="dWubEJJqkw_rELNpz6dQ-697" value="Cart/Payment" style="whiteSpace=wrap;rounded=1;fillColor=#60a917;strokeColor=#2D7600;shadow=1;fontColor=#ffffff;" vertex="1" parent="1">
          <mxGeometry x="2900" y="-437" width="120" height="60" as="geometry" />
        </mxCell>
        <mxCell id="dWubEJJqkw_rELNpz6dQ-698" value="" style="edgeStyle=elbowEdgeStyle;elbow=horizontal;rounded=0;fontColor=#000000;endArrow=none;endFill=0;strokeWidth=8;strokeColor=#23445D;exitX=0.5;exitY=1;exitDx=0;exitDy=0;entryX=0.5;entryY=0;entryDx=0;entryDy=0;" edge="1" parent="1" target="dWubEJJqkw_rELNpz6dQ-697">
          <mxGeometry width="100" height="100" relative="1" as="geometry">
            <mxPoint x="2960" y="-480" as="sourcePoint" />
            <mxPoint x="2960" y="-440" as="targetPoint" />
            <Array as="points">
              <mxPoint x="2960" y="-440" />
            </Array>
          </mxGeometry>
        </mxCell>
        <mxCell id="dWubEJJqkw_rELNpz6dQ-700" value="" style="edgeStyle=elbowEdgeStyle;elbow=vertical;rounded=0;fontColor=#000000;endArrow=none;endFill=0;strokeWidth=8;strokeColor=#23445D;exitX=0.5;exitY=1;exitDx=0;exitDy=0;entryX=0.5;entryY=0;entryDx=0;entryDy=0;" edge="1" parent="1" source="2" target="dWubEJJqkw_rELNpz6dQ-284">
          <mxGeometry width="100" height="100" relative="1" as="geometry">
            <mxPoint x="1780" y="-570" as="sourcePoint" />
            <mxPoint x="3190" y="-530.0000000000002" as="targetPoint" />
          </mxGeometry>
        </mxCell>
      </root>
    </mxGraphModel>
  </diagram>
</mxfile>
